<mxfile host="Electron" modified="2023-09-20T02:54:25.008Z" agent="Mozilla/5.0 (X11; Linux x86_64) AppleWebKit/537.36 (KHTML, like Gecko) draw.io/21.7.5 Chrome/114.0.5735.289 Electron/25.8.1 Safari/537.36" etag="8ZkaNxQCPdpZHka31uWK" version="21.7.5" type="device">
  <diagram name="第 1 页" id="FobTePj_VbTd-Ppz8aLG">
    <mxGraphModel dx="2279" dy="533" grid="1" gridSize="10" guides="1" tooltips="1" connect="1" arrows="1" fold="1" page="1" pageScale="1" pageWidth="827" pageHeight="1169" math="0" shadow="0">
      <root>
        <mxCell id="0" />
        <mxCell id="1" parent="0" />
        <mxCell id="sEi9Yv829PW1bHyt4c2J-9" value="Processors" style="rounded=0;whiteSpace=wrap;html=1;fillColor=#f0a30a;fontColor=#000000;strokeColor=#BD7000;verticalAlign=bottom;fontSize=14;fontStyle=1" parent="1" vertex="1">
          <mxGeometry x="-904.5" y="110" width="734.5" height="270" as="geometry" />
        </mxCell>
        <mxCell id="Wq6IvpQs6uBBfWCSo5gb-210" value="S32G2&#39;s HSE" style="rounded=0;whiteSpace=wrap;html=1;fontStyle=1;fillColor=#647687;fontColor=#ffffff;strokeColor=#314354;verticalAlign=bottom;" parent="1" vertex="1">
          <mxGeometry x="-290" y="3260" width="300" height="150" as="geometry" />
        </mxCell>
        <mxCell id="Wq6IvpQs6uBBfWCSo5gb-87" value="=&amp;gt; hse_secboot_enable rsa2048_public.der (self provisioning and signing)" style="rounded=0;whiteSpace=wrap;html=1;fillColor=#76608a;fontColor=#ffffff;strokeColor=#432D57;verticalAlign=bottom;fontSize=14;fontStyle=1" parent="1" vertex="1">
          <mxGeometry x="15.5" y="1070" width="644.5" height="500" as="geometry" />
        </mxCell>
        <mxCell id="Wq6IvpQs6uBBfWCSo5gb-86" value="ARM common Boot Flow" style="rounded=0;whiteSpace=wrap;html=1;fillColor=#f0a30a;fontColor=#000000;strokeColor=#BD7000;verticalAlign=bottom;fontSize=14;fontStyle=1" parent="1" vertex="1">
          <mxGeometry x="15.5" y="650" width="644.5" height="420" as="geometry" />
        </mxCell>
        <mxCell id="Wq6IvpQs6uBBfWCSo5gb-1" style="edgeStyle=orthogonalEdgeStyle;rounded=0;orthogonalLoop=1;jettySize=auto;html=1;exitX=0.5;exitY=1;exitDx=0;exitDy=0;entryX=0.5;entryY=0;entryDx=0;entryDy=0;" parent="1" source="Wq6IvpQs6uBBfWCSo5gb-2" target="Wq6IvpQs6uBBfWCSo5gb-4" edge="1">
          <mxGeometry relative="1" as="geometry" />
        </mxCell>
        <mxCell id="Wq6IvpQs6uBBfWCSo5gb-2" value="BootROM" style="rounded=1;whiteSpace=wrap;html=1;fillColor=#008a00;strokeColor=#005700;fontColor=#ffffff;fontStyle=1" parent="1" vertex="1">
          <mxGeometry x="270" y="160" width="140" height="40" as="geometry" />
        </mxCell>
        <mxCell id="Wq6IvpQs6uBBfWCSo5gb-3" style="edgeStyle=orthogonalEdgeStyle;rounded=0;orthogonalLoop=1;jettySize=auto;html=1;exitX=0.5;exitY=1;exitDx=0;exitDy=0;entryX=0.5;entryY=0;entryDx=0;entryDy=0;" parent="1" source="Wq6IvpQs6uBBfWCSo5gb-4" edge="1">
          <mxGeometry relative="1" as="geometry">
            <mxPoint x="340" y="320" as="targetPoint" />
          </mxGeometry>
        </mxCell>
        <mxCell id="Wq6IvpQs6uBBfWCSo5gb-4" value="HSE Firmware" style="rounded=0;whiteSpace=wrap;html=1;fillColor=#0050ef;fontColor=#ffffff;strokeColor=#001DBC;fontStyle=1" parent="1" vertex="1">
          <mxGeometry x="255" y="240" width="170" height="40" as="geometry" />
        </mxCell>
        <mxCell id="Wq6IvpQs6uBBfWCSo5gb-27" style="edgeStyle=orthogonalEdgeStyle;rounded=0;orthogonalLoop=1;jettySize=auto;html=1;entryX=0;entryY=0.5;entryDx=0;entryDy=0;" parent="1" target="Wq6IvpQs6uBBfWCSo5gb-2" edge="1">
          <mxGeometry relative="1" as="geometry">
            <mxPoint x="102" y="180" as="sourcePoint" />
          </mxGeometry>
        </mxCell>
        <mxCell id="Wq6IvpQs6uBBfWCSo5gb-39" style="edgeStyle=orthogonalEdgeStyle;rounded=0;orthogonalLoop=1;jettySize=auto;html=1;exitX=0.5;exitY=1;exitDx=0;exitDy=0;entryX=0.5;entryY=0;entryDx=0;entryDy=0;" parent="1" source="Wq6IvpQs6uBBfWCSo5gb-40" target="Wq6IvpQs6uBBfWCSo5gb-42" edge="1">
          <mxGeometry relative="1" as="geometry" />
        </mxCell>
        <mxCell id="Wq6IvpQs6uBBfWCSo5gb-40" value="SoC Hardcode Stage" style="rounded=1;whiteSpace=wrap;html=1;fillColor=#008a00;strokeColor=#005700;fontColor=#ffffff;fontStyle=1" parent="1" vertex="1">
          <mxGeometry x="255" y="670" width="140" height="40" as="geometry" />
        </mxCell>
        <mxCell id="Wq6IvpQs6uBBfWCSo5gb-41" style="edgeStyle=orthogonalEdgeStyle;rounded=0;orthogonalLoop=1;jettySize=auto;html=1;exitX=0.5;exitY=1;exitDx=0;exitDy=0;entryX=0.5;entryY=0;entryDx=0;entryDy=0;" parent="1" source="Wq6IvpQs6uBBfWCSo5gb-42" target="Wq6IvpQs6uBBfWCSo5gb-47" edge="1">
          <mxGeometry relative="1" as="geometry" />
        </mxCell>
        <mxCell id="Wq6IvpQs6uBBfWCSo5gb-42" value="NXP Hardcode BootROM (EL3)" style="rounded=0;whiteSpace=wrap;html=1;fillColor=#a20025;fontColor=#ffffff;strokeColor=#6F0000;fontStyle=1" parent="1" vertex="1">
          <mxGeometry x="240" y="750" width="170" height="40" as="geometry" />
        </mxCell>
        <mxCell id="Wq6IvpQs6uBBfWCSo5gb-43" value="Read image" style="text;html=1;align=center;verticalAlign=middle;resizable=0;points=[];autosize=1;strokeColor=none;fillColor=none;" parent="1" vertex="1">
          <mxGeometry x="120" y="665" width="90" height="30" as="geometry" />
        </mxCell>
        <mxCell id="Wq6IvpQs6uBBfWCSo5gb-44" value="· Pin mux + SerDes pins&lt;br&gt;· Clock and PLL&lt;br&gt;· load BootROM" style="text;html=1;align=left;verticalAlign=middle;resizable=0;points=[];autosize=1;strokeColor=none;fillColor=none;fontStyle=1" parent="1" vertex="1">
          <mxGeometry x="399" y="660" width="160" height="60" as="geometry" />
        </mxCell>
        <mxCell id="Wq6IvpQs6uBBfWCSo5gb-45" value="· Config Low-level aspects of SoC&lt;br&gt;· load TF-A binaries" style="text;html=1;align=left;verticalAlign=middle;resizable=0;points=[];autosize=1;strokeColor=none;fillColor=none;fontStyle=1" parent="1" vertex="1">
          <mxGeometry x="410" y="750" width="220" height="40" as="geometry" />
        </mxCell>
        <mxCell id="Wq6IvpQs6uBBfWCSo5gb-46" style="edgeStyle=orthogonalEdgeStyle;rounded=0;orthogonalLoop=1;jettySize=auto;html=1;exitX=0.5;exitY=1;exitDx=0;exitDy=0;" parent="1" source="Wq6IvpQs6uBBfWCSo5gb-47" target="Wq6IvpQs6uBBfWCSo5gb-52" edge="1">
          <mxGeometry relative="1" as="geometry" />
        </mxCell>
        <mxCell id="Wq6IvpQs6uBBfWCSo5gb-47" value="ATF (Platform init firmware)&lt;br&gt;&amp;nbsp;(EL3)" style="rounded=0;whiteSpace=wrap;html=1;fillColor=#a20025;fontColor=#ffffff;strokeColor=#6F0000;fontStyle=1" parent="1" vertex="1">
          <mxGeometry x="240" y="830" width="170" height="40" as="geometry" />
        </mxCell>
        <mxCell id="Wq6IvpQs6uBBfWCSo5gb-48" value="BL1" style="text;html=1;align=center;verticalAlign=middle;resizable=0;points=[];autosize=1;strokeColor=none;fillColor=none;" parent="1" vertex="1">
          <mxGeometry x="204" y="770" width="40" height="30" as="geometry" />
        </mxCell>
        <mxCell id="Wq6IvpQs6uBBfWCSo5gb-49" value="BL2" style="text;html=1;align=center;verticalAlign=middle;resizable=0;points=[];autosize=1;strokeColor=none;fillColor=none;" parent="1" vertex="1">
          <mxGeometry x="204" y="845" width="40" height="30" as="geometry" />
        </mxCell>
        <mxCell id="Wq6IvpQs6uBBfWCSo5gb-50" style="edgeStyle=orthogonalEdgeStyle;rounded=0;orthogonalLoop=1;jettySize=auto;html=1;exitX=1;exitY=0.5;exitDx=0;exitDy=0;" parent="1" source="Wq6IvpQs6uBBfWCSo5gb-52" target="Wq6IvpQs6uBBfWCSo5gb-88" edge="1">
          <mxGeometry relative="1" as="geometry">
            <mxPoint x="475" y="925" as="targetPoint" />
          </mxGeometry>
        </mxCell>
        <mxCell id="Wq6IvpQs6uBBfWCSo5gb-51" style="edgeStyle=orthogonalEdgeStyle;rounded=0;orthogonalLoop=1;jettySize=auto;html=1;exitX=0.25;exitY=1;exitDx=0;exitDy=0;entryX=0.25;entryY=0;entryDx=0;entryDy=0;" parent="1" source="Wq6IvpQs6uBBfWCSo5gb-52" target="Wq6IvpQs6uBBfWCSo5gb-57" edge="1">
          <mxGeometry relative="1" as="geometry" />
        </mxCell>
        <mxCell id="Wq6IvpQs6uBBfWCSo5gb-52" value="ATF (Runtime firmware)&lt;br&gt;&amp;nbsp;(EL3)" style="rounded=0;whiteSpace=wrap;html=1;fillColor=#a20025;fontColor=#ffffff;strokeColor=#6F0000;fontStyle=1" parent="1" vertex="1">
          <mxGeometry x="240" y="905" width="170" height="40" as="geometry" />
        </mxCell>
        <mxCell id="Wq6IvpQs6uBBfWCSo5gb-53" value="BL31" style="text;html=1;align=center;verticalAlign=middle;resizable=0;points=[];autosize=1;strokeColor=none;fillColor=none;" parent="1" vertex="1">
          <mxGeometry x="199" y="923" width="50" height="30" as="geometry" />
        </mxCell>
        <mxCell id="Wq6IvpQs6uBBfWCSo5gb-56" style="edgeStyle=orthogonalEdgeStyle;rounded=0;orthogonalLoop=1;jettySize=auto;html=1;exitX=0.75;exitY=0;exitDx=0;exitDy=0;entryX=0.75;entryY=1;entryDx=0;entryDy=0;" parent="1" source="Wq6IvpQs6uBBfWCSo5gb-57" target="Wq6IvpQs6uBBfWCSo5gb-52" edge="1">
          <mxGeometry relative="1" as="geometry" />
        </mxCell>
        <mxCell id="Wq6IvpQs6uBBfWCSo5gb-57" value="OP-TEE&lt;br&gt;&amp;nbsp;(EL1)" style="rounded=0;whiteSpace=wrap;html=1;fillColor=#a20025;fontColor=#ffffff;strokeColor=#6F0000;fontStyle=1" parent="1" vertex="1">
          <mxGeometry x="240" y="980" width="170" height="40" as="geometry" />
        </mxCell>
        <mxCell id="Wq6IvpQs6uBBfWCSo5gb-58" value="BL32" style="text;html=1;align=center;verticalAlign=middle;resizable=0;points=[];autosize=1;strokeColor=none;fillColor=none;" parent="1" vertex="1">
          <mxGeometry x="198" y="999" width="50" height="30" as="geometry" />
        </mxCell>
        <mxCell id="Wq6IvpQs6uBBfWCSo5gb-59" value="1&lt;br&gt;" style="text;html=1;align=center;verticalAlign=middle;resizable=0;points=[];autosize=1;strokeColor=none;fillColor=none;fontStyle=1" parent="1" vertex="1">
          <mxGeometry x="316" y="871" width="30" height="30" as="geometry" />
        </mxCell>
        <mxCell id="Wq6IvpQs6uBBfWCSo5gb-60" value="2" style="text;html=1;align=center;verticalAlign=middle;resizable=0;points=[];autosize=1;strokeColor=none;fillColor=none;fontStyle=1" parent="1" vertex="1">
          <mxGeometry x="275" y="946" width="30" height="30" as="geometry" />
        </mxCell>
        <mxCell id="Wq6IvpQs6uBBfWCSo5gb-61" value="3" style="text;html=1;align=center;verticalAlign=middle;resizable=0;points=[];autosize=1;strokeColor=none;fillColor=none;fontStyle=1" parent="1" vertex="1">
          <mxGeometry x="359" y="949" width="30" height="30" as="geometry" />
        </mxCell>
        <mxCell id="Wq6IvpQs6uBBfWCSo5gb-62" value="4" style="text;html=1;align=center;verticalAlign=middle;resizable=0;points=[];autosize=1;strokeColor=none;fillColor=none;fontStyle=1" parent="1" vertex="1">
          <mxGeometry x="420" y="903" width="30" height="30" as="geometry" />
        </mxCell>
        <mxCell id="Wq6IvpQs6uBBfWCSo5gb-64" value="5" style="text;html=1;align=center;verticalAlign=middle;resizable=0;points=[];autosize=1;strokeColor=none;fillColor=none;fontStyle=1" parent="1" vertex="1">
          <mxGeometry x="559" y="976" width="30" height="30" as="geometry" />
        </mxCell>
        <mxCell id="Wq6IvpQs6uBBfWCSo5gb-65" style="edgeStyle=orthogonalEdgeStyle;rounded=0;orthogonalLoop=1;jettySize=auto;html=1;entryX=0;entryY=0.5;entryDx=0;entryDy=0;" parent="1" source="Wq6IvpQs6uBBfWCSo5gb-67" target="Wq6IvpQs6uBBfWCSo5gb-40" edge="1">
          <mxGeometry relative="1" as="geometry" />
        </mxCell>
        <mxCell id="Wq6IvpQs6uBBfWCSo5gb-66" style="edgeStyle=orthogonalEdgeStyle;rounded=0;orthogonalLoop=1;jettySize=auto;html=1;entryX=0;entryY=0.5;entryDx=0;entryDy=0;" parent="1" source="Wq6IvpQs6uBBfWCSo5gb-67" target="Wq6IvpQs6uBBfWCSo5gb-42" edge="1">
          <mxGeometry relative="1" as="geometry" />
        </mxCell>
        <mxCell id="Wq6IvpQs6uBBfWCSo5gb-95" style="edgeStyle=orthogonalEdgeStyle;rounded=0;orthogonalLoop=1;jettySize=auto;html=1;entryX=0;entryY=0.5;entryDx=0;entryDy=0;" parent="1" source="Wq6IvpQs6uBBfWCSo5gb-67" target="Wq6IvpQs6uBBfWCSo5gb-92" edge="1">
          <mxGeometry relative="1" as="geometry">
            <Array as="points">
              <mxPoint x="-60" y="1152" />
            </Array>
          </mxGeometry>
        </mxCell>
        <mxCell id="Wq6IvpQs6uBBfWCSo5gb-67" value="" style="sketch=0;pointerEvents=1;shadow=0;dashed=0;html=1;strokeColor=none;fillColor=#005F4B;labelPosition=center;verticalLabelPosition=bottom;verticalAlign=top;align=center;outlineConnect=0;shape=mxgraph.veeam2.sd_card;" parent="1" vertex="1">
          <mxGeometry x="-70" y="676" width="23" height="28.000000000000004" as="geometry" />
        </mxCell>
        <mxCell id="Wq6IvpQs6uBBfWCSo5gb-68" value="SD/EMMC/FLASH" style="text;html=1;align=center;verticalAlign=middle;resizable=0;points=[];autosize=1;strokeColor=none;fillColor=none;fontStyle=1" parent="1" vertex="1">
          <mxGeometry x="-104.5" y="646" width="120" height="30" as="geometry" />
        </mxCell>
        <mxCell id="Wq6IvpQs6uBBfWCSo5gb-69" value="Read ATF binaries" style="text;html=1;align=center;verticalAlign=middle;resizable=0;points=[];autosize=1;strokeColor=none;fillColor=none;" parent="1" vertex="1">
          <mxGeometry x="70.5" y="770" width="120" height="30" as="geometry" />
        </mxCell>
        <mxCell id="Wq6IvpQs6uBBfWCSo5gb-70" value="· BL2 initializes the DRAM &lt;br&gt;· Configures TZASC&lt;br&gt;· Valid image (fip.bin)" style="text;html=1;align=left;verticalAlign=middle;resizable=0;points=[];autosize=1;strokeColor=none;fillColor=none;fontStyle=1" parent="1" vertex="1">
          <mxGeometry x="410" y="820" width="170" height="60" as="geometry" />
        </mxCell>
        <mxCell id="Wq6IvpQs6uBBfWCSo5gb-71" value="BL33" style="text;html=1;align=center;verticalAlign=middle;resizable=0;points=[];autosize=1;strokeColor=none;fillColor=none;" parent="1" vertex="1">
          <mxGeometry x="433" y="927" width="50" height="30" as="geometry" />
        </mxCell>
        <mxCell id="Wq6IvpQs6uBBfWCSo5gb-72" value="" style="group" parent="1" vertex="1" connectable="0">
          <mxGeometry x="60" y="980" width="130.5" height="49" as="geometry" />
        </mxCell>
        <mxCell id="Wq6IvpQs6uBBfWCSo5gb-73" value="" style="whiteSpace=wrap;html=1;fillColor=#a20025;fontColor=#ffffff;strokeColor=#6F0000;" parent="Wq6IvpQs6uBBfWCSo5gb-72" vertex="1">
          <mxGeometry y="10" width="43.5" height="10" as="geometry" />
        </mxCell>
        <mxCell id="Wq6IvpQs6uBBfWCSo5gb-74" value="Secure" style="text;html=1;align=center;verticalAlign=middle;resizable=0;points=[];autosize=1;strokeColor=none;fillColor=none;" parent="Wq6IvpQs6uBBfWCSo5gb-72" vertex="1">
          <mxGeometry x="43.5" width="60" height="30" as="geometry" />
        </mxCell>
        <mxCell id="Wq6IvpQs6uBBfWCSo5gb-75" value="" style="whiteSpace=wrap;html=1;fillColor=#008a00;fontColor=#ffffff;strokeColor=#005700;" parent="Wq6IvpQs6uBBfWCSo5gb-72" vertex="1">
          <mxGeometry y="29" width="43.5" height="10" as="geometry" />
        </mxCell>
        <mxCell id="Wq6IvpQs6uBBfWCSo5gb-76" value="Non-Secure" style="text;html=1;align=center;verticalAlign=middle;resizable=0;points=[];autosize=1;strokeColor=none;fillColor=none;" parent="Wq6IvpQs6uBBfWCSo5gb-72" vertex="1">
          <mxGeometry x="40.5" y="19" width="90" height="30" as="geometry" />
        </mxCell>
        <mxCell id="Wq6IvpQs6uBBfWCSo5gb-77" value="Booting" style="text;html=1;align=center;verticalAlign=middle;resizable=0;points=[];autosize=1;strokeColor=none;fillColor=none;fontStyle=1" parent="1" vertex="1">
          <mxGeometry x="107" y="160" width="70" height="30" as="geometry" />
        </mxCell>
        <mxCell id="Wq6IvpQs6uBBfWCSo5gb-85" style="edgeStyle=orthogonalEdgeStyle;rounded=0;orthogonalLoop=1;jettySize=auto;html=1;exitX=0.5;exitY=1;exitDx=0;exitDy=0;entryX=0.5;entryY=0;entryDx=0;entryDy=0;" parent="1" source="Wq6IvpQs6uBBfWCSo5gb-78" target="Wq6IvpQs6uBBfWCSo5gb-84" edge="1">
          <mxGeometry relative="1" as="geometry" />
        </mxCell>
        <mxCell id="Wq6IvpQs6uBBfWCSo5gb-78" value="Kernel" style="rounded=0;whiteSpace=wrap;html=1;fillColor=#0050ef;fontColor=#ffffff;strokeColor=#001DBC;fontStyle=1" parent="1" vertex="1">
          <mxGeometry x="255" y="410" width="170" height="40" as="geometry" />
        </mxCell>
        <mxCell id="Wq6IvpQs6uBBfWCSo5gb-79" value="auth" style="text;html=1;align=center;verticalAlign=middle;resizable=0;points=[];autosize=1;strokeColor=none;fillColor=none;" parent="1" vertex="1">
          <mxGeometry x="339" y="290" width="50" height="30" as="geometry" />
        </mxCell>
        <mxCell id="Wq6IvpQs6uBBfWCSo5gb-81" style="edgeStyle=orthogonalEdgeStyle;rounded=0;orthogonalLoop=1;jettySize=auto;html=1;exitX=0.5;exitY=1;exitDx=0;exitDy=0;" parent="1" source="Wq6IvpQs6uBBfWCSo5gb-80" target="Wq6IvpQs6uBBfWCSo5gb-78" edge="1">
          <mxGeometry relative="1" as="geometry" />
        </mxCell>
        <mxCell id="Wq6IvpQs6uBBfWCSo5gb-80" value="U-Boot" style="rounded=0;whiteSpace=wrap;html=1;fillColor=#0050ef;fontColor=#ffffff;strokeColor=#001DBC;fontStyle=1" parent="1" vertex="1">
          <mxGeometry x="255" y="320" width="170" height="40" as="geometry" />
        </mxCell>
        <mxCell id="Wq6IvpQs6uBBfWCSo5gb-83" value="auth" style="text;html=1;align=center;verticalAlign=middle;resizable=0;points=[];autosize=1;strokeColor=none;fillColor=none;" parent="1" vertex="1">
          <mxGeometry x="339" y="368" width="50" height="30" as="geometry" />
        </mxCell>
        <mxCell id="Wq6IvpQs6uBBfWCSo5gb-84" value="rootfs" style="rounded=1;whiteSpace=wrap;html=1;fillColor=#008a00;strokeColor=#005700;fontColor=#ffffff;fontStyle=1" parent="1" vertex="1">
          <mxGeometry x="270" y="490" width="140" height="40" as="geometry" />
        </mxCell>
        <mxCell id="Wq6IvpQs6uBBfWCSo5gb-91" style="edgeStyle=orthogonalEdgeStyle;rounded=0;orthogonalLoop=1;jettySize=auto;html=1;exitX=0.5;exitY=1;exitDx=0;exitDy=0;" parent="1" source="Wq6IvpQs6uBBfWCSo5gb-88" target="Wq6IvpQs6uBBfWCSo5gb-90" edge="1">
          <mxGeometry relative="1" as="geometry" />
        </mxCell>
        <mxCell id="Wq6IvpQs6uBBfWCSo5gb-88" value="Check IVT" style="rounded=1;whiteSpace=wrap;html=1;fillColor=#008a00;strokeColor=#005700;fontColor=#ffffff;fontStyle=1" parent="1" vertex="1">
          <mxGeometry x="489" y="905" width="140" height="40" as="geometry" />
        </mxCell>
        <mxCell id="Wq6IvpQs6uBBfWCSo5gb-94" style="edgeStyle=orthogonalEdgeStyle;rounded=0;orthogonalLoop=1;jettySize=auto;html=1;exitX=0;exitY=0.5;exitDx=0;exitDy=0;" parent="1" source="Wq6IvpQs6uBBfWCSo5gb-90" target="Wq6IvpQs6uBBfWCSo5gb-92" edge="1">
          <mxGeometry relative="1" as="geometry" />
        </mxCell>
        <mxCell id="Wq6IvpQs6uBBfWCSo5gb-90" value="HSE Firmware&lt;br&gt;Initialized?" style="rhombus;whiteSpace=wrap;html=1;fontStyle=1;fillColor=#008a00;fontColor=#ffffff;strokeColor=#005700;" parent="1" vertex="1">
          <mxGeometry x="494" y="1112" width="130" height="80" as="geometry" />
        </mxCell>
        <mxCell id="Wq6IvpQs6uBBfWCSo5gb-97" style="edgeStyle=orthogonalEdgeStyle;rounded=0;orthogonalLoop=1;jettySize=auto;html=1;exitX=0.5;exitY=1;exitDx=0;exitDy=0;" parent="1" source="Wq6IvpQs6uBBfWCSo5gb-92" target="Wq6IvpQs6uBBfWCSo5gb-96" edge="1">
          <mxGeometry relative="1" as="geometry" />
        </mxCell>
        <mxCell id="Wq6IvpQs6uBBfWCSo5gb-92" value="Read the IVT from the boot media" style="rounded=0;whiteSpace=wrap;html=1;fillColor=#a20025;fontColor=#ffffff;strokeColor=#6F0000;fontStyle=1" parent="1" vertex="1">
          <mxGeometry x="240" y="1132" width="170" height="40" as="geometry" />
        </mxCell>
        <mxCell id="Wq6IvpQs6uBBfWCSo5gb-104" style="edgeStyle=orthogonalEdgeStyle;rounded=0;orthogonalLoop=1;jettySize=auto;html=1;exitX=0;exitY=0.5;exitDx=0;exitDy=0;" parent="1" source="Wq6IvpQs6uBBfWCSo5gb-96" target="Wq6IvpQs6uBBfWCSo5gb-99" edge="1">
          <mxGeometry relative="1" as="geometry" />
        </mxCell>
        <mxCell id="Wq6IvpQs6uBBfWCSo5gb-96" value="no SYS_IMG?" style="rhombus;whiteSpace=wrap;html=1;fontStyle=1;fillColor=#008a00;fontColor=#ffffff;strokeColor=#005700;" parent="1" vertex="1">
          <mxGeometry x="260" y="1210" width="130" height="80" as="geometry" />
        </mxCell>
        <mxCell id="Wq6IvpQs6uBBfWCSo5gb-106" style="edgeStyle=orthogonalEdgeStyle;rounded=0;orthogonalLoop=1;jettySize=auto;html=1;exitX=0.5;exitY=1;exitDx=0;exitDy=0;" parent="1" source="Wq6IvpQs6uBBfWCSo5gb-99" target="Wq6IvpQs6uBBfWCSo5gb-102" edge="1">
          <mxGeometry relative="1" as="geometry" />
        </mxCell>
        <mxCell id="Wq6IvpQs6uBBfWCSo5gb-99" value="S32G self Provisioing&lt;br&gt;SYS_IMG" style="rounded=1;whiteSpace=wrap;html=1;fillColor=#008a00;strokeColor=#005700;fontColor=#ffffff;fontStyle=1" parent="1" vertex="1">
          <mxGeometry x="59" y="1230" width="140" height="40" as="geometry" />
        </mxCell>
        <mxCell id="Wq6IvpQs6uBBfWCSo5gb-101" value="Yes" style="text;html=1;align=center;verticalAlign=middle;resizable=0;points=[];autosize=1;strokeColor=none;fillColor=none;fontStyle=1" parent="1" vertex="1">
          <mxGeometry x="215" y="1230" width="40" height="30" as="geometry" />
        </mxCell>
        <mxCell id="Wq6IvpQs6uBBfWCSo5gb-107" style="edgeStyle=orthogonalEdgeStyle;rounded=0;orthogonalLoop=1;jettySize=auto;html=1;exitX=1;exitY=0.5;exitDx=0;exitDy=0;" parent="1" source="Wq6IvpQs6uBBfWCSo5gb-102" target="Wq6IvpQs6uBBfWCSo5gb-105" edge="1">
          <mxGeometry relative="1" as="geometry" />
        </mxCell>
        <mxCell id="Wq6IvpQs6uBBfWCSo5gb-102" value="Configure the HSE NVM and RAM key catalogs" style="rounded=0;whiteSpace=wrap;html=1;fillColor=#a20025;fontColor=#ffffff;strokeColor=#6F0000;fontStyle=1" parent="1" vertex="1">
          <mxGeometry x="57.13" y="1320" width="142.25" height="40" as="geometry" />
        </mxCell>
        <mxCell id="Wq6IvpQs6uBBfWCSo5gb-110" style="edgeStyle=orthogonalEdgeStyle;rounded=0;orthogonalLoop=1;jettySize=auto;html=1;exitX=1;exitY=0.5;exitDx=0;exitDy=0;" parent="1" source="Wq6IvpQs6uBBfWCSo5gb-105" target="Wq6IvpQs6uBBfWCSo5gb-108" edge="1">
          <mxGeometry relative="1" as="geometry" />
        </mxCell>
        <mxCell id="Wq6IvpQs6uBBfWCSo5gb-105" value="Import the RSA public key into the NVM key catalog;" style="rounded=0;whiteSpace=wrap;html=1;fillColor=#a20025;fontColor=#ffffff;strokeColor=#6F0000;fontStyle=1" parent="1" vertex="1">
          <mxGeometry x="240" y="1320" width="170" height="40" as="geometry" />
        </mxCell>
        <mxCell id="Wq6IvpQs6uBBfWCSo5gb-117" style="edgeStyle=orthogonalEdgeStyle;rounded=0;orthogonalLoop=1;jettySize=auto;html=1;exitX=0.5;exitY=1;exitDx=0;exitDy=0;" parent="1" source="Wq6IvpQs6uBBfWCSo5gb-108" target="Wq6IvpQs6uBBfWCSo5gb-114" edge="1">
          <mxGeometry relative="1" as="geometry" />
        </mxCell>
        <mxCell id="Wq6IvpQs6uBBfWCSo5gb-108" value="Configure and install the Core Reset entry + Secure Memory Region&amp;nbsp;" style="rounded=0;whiteSpace=wrap;html=1;fillColor=#a20025;fontColor=#ffffff;strokeColor=#6F0000;fontStyle=1" parent="1" vertex="1">
          <mxGeometry x="450" y="1320" width="170" height="40" as="geometry" />
        </mxCell>
        <mxCell id="Wq6IvpQs6uBBfWCSo5gb-111" value="No" style="text;html=1;align=center;verticalAlign=middle;resizable=0;points=[];autosize=1;strokeColor=none;fillColor=none;fontStyle=1" parent="1" vertex="1">
          <mxGeometry x="388" y="1227" width="40" height="30" as="geometry" />
        </mxCell>
        <mxCell id="Wq6IvpQs6uBBfWCSo5gb-119" style="edgeStyle=orthogonalEdgeStyle;rounded=0;orthogonalLoop=1;jettySize=auto;html=1;exitX=0;exitY=0.5;exitDx=0;exitDy=0;" parent="1" source="Wq6IvpQs6uBBfWCSo5gb-114" target="Wq6IvpQs6uBBfWCSo5gb-118" edge="1">
          <mxGeometry relative="1" as="geometry" />
        </mxCell>
        <mxCell id="Wq6IvpQs6uBBfWCSo5gb-114" value="Generate the signed SYS_IMG;" style="rounded=0;whiteSpace=wrap;html=1;fillColor=#a20025;fontColor=#ffffff;strokeColor=#6F0000;fontStyle=1" parent="1" vertex="1">
          <mxGeometry x="450" y="1400" width="170" height="40" as="geometry" />
        </mxCell>
        <mxCell id="Wq6IvpQs6uBBfWCSo5gb-122" style="edgeStyle=orthogonalEdgeStyle;rounded=0;orthogonalLoop=1;jettySize=auto;html=1;exitX=0;exitY=0.5;exitDx=0;exitDy=0;entryX=1;entryY=0.5;entryDx=0;entryDy=0;" parent="1" source="Wq6IvpQs6uBBfWCSo5gb-118" target="Wq6IvpQs6uBBfWCSo5gb-121" edge="1">
          <mxGeometry relative="1" as="geometry" />
        </mxCell>
        <mxCell id="Wq6IvpQs6uBBfWCSo5gb-118" value="Write the SYS_IMG back onto the boot media;" style="rounded=0;whiteSpace=wrap;html=1;fillColor=#008a00;fontColor=#ffffff;strokeColor=#005700;fontStyle=1" parent="1" vertex="1">
          <mxGeometry x="240" y="1400" width="170" height="40" as="geometry" />
        </mxCell>
        <mxCell id="Wq6IvpQs6uBBfWCSo5gb-124" style="edgeStyle=orthogonalEdgeStyle;rounded=0;orthogonalLoop=1;jettySize=auto;html=1;exitX=0.5;exitY=1;exitDx=0;exitDy=0;entryX=0.5;entryY=0;entryDx=0;entryDy=0;" parent="1" source="Wq6IvpQs6uBBfWCSo5gb-121" target="Wq6IvpQs6uBBfWCSo5gb-123" edge="1">
          <mxGeometry relative="1" as="geometry" />
        </mxCell>
        <mxCell id="Wq6IvpQs6uBBfWCSo5gb-121" value="Set appropriate pointers in the IVT;" style="rounded=0;whiteSpace=wrap;html=1;fillColor=#008a00;fontColor=#ffffff;strokeColor=#005700;fontStyle=1" parent="1" vertex="1">
          <mxGeometry x="57.87" y="1400" width="142.25" height="40" as="geometry" />
        </mxCell>
        <mxCell id="Wq6IvpQs6uBBfWCSo5gb-127" style="edgeStyle=orthogonalEdgeStyle;rounded=0;orthogonalLoop=1;jettySize=auto;html=1;exitX=1;exitY=0.5;exitDx=0;exitDy=0;" parent="1" source="Wq6IvpQs6uBBfWCSo5gb-123" target="Wq6IvpQs6uBBfWCSo5gb-125" edge="1">
          <mxGeometry relative="1" as="geometry" />
        </mxCell>
        <mxCell id="Wq6IvpQs6uBBfWCSo5gb-123" value="Set the BOOT_SEQ bit;" style="rounded=0;whiteSpace=wrap;html=1;fillColor=#008a00;fontColor=#ffffff;strokeColor=#005700;fontStyle=1" parent="1" vertex="1">
          <mxGeometry x="57.870000000000005" y="1480" width="142.25" height="40" as="geometry" />
        </mxCell>
        <mxCell id="Wq6IvpQs6uBBfWCSo5gb-125" value="Write the IVT back onto the boot media;" style="rounded=0;whiteSpace=wrap;html=1;fillColor=#008a00;fontColor=#ffffff;strokeColor=#005700;fontStyle=1" parent="1" vertex="1">
          <mxGeometry x="244" y="1480" width="166" height="40" as="geometry" />
        </mxCell>
        <mxCell id="Wq6IvpQs6uBBfWCSo5gb-128" value="ARM common Boot Flow" style="rounded=0;whiteSpace=wrap;html=1;fillColor=#f0a30a;fontColor=#000000;strokeColor=#BD7000;verticalAlign=bottom;fontSize=14;fontStyle=1" parent="1" vertex="1">
          <mxGeometry x="15.5" y="1570" width="644.5" height="270" as="geometry" />
        </mxCell>
        <mxCell id="Wq6IvpQs6uBBfWCSo5gb-141" style="edgeStyle=orthogonalEdgeStyle;rounded=0;orthogonalLoop=1;jettySize=auto;html=1;exitX=0.5;exitY=1;exitDx=0;exitDy=0;entryX=0.5;entryY=0;entryDx=0;entryDy=0;" parent="1" source="Wq6IvpQs6uBBfWCSo5gb-63" target="Wq6IvpQs6uBBfWCSo5gb-140" edge="1">
          <mxGeometry relative="1" as="geometry" />
        </mxCell>
        <mxCell id="Wq6IvpQs6uBBfWCSo5gb-63" value="Guest OS (Linux Kernel) (EL1)" style="rounded=0;whiteSpace=wrap;html=1;fillColor=#008a00;fontColor=#ffffff;strokeColor=#005700;fontStyle=1" parent="1" vertex="1">
          <mxGeometry x="70" y="1640" width="170" height="40" as="geometry" />
        </mxCell>
        <mxCell id="Wq6IvpQs6uBBfWCSo5gb-130" value="New?" style="text;html=1;align=center;verticalAlign=middle;resizable=0;points=[];autosize=1;strokeColor=none;fillColor=none;fontStyle=1" parent="1" vertex="1">
          <mxGeometry x="586" y="945" width="60" height="30" as="geometry" />
        </mxCell>
        <mxCell id="Wq6IvpQs6uBBfWCSo5gb-131" value="5" style="text;html=1;align=center;verticalAlign=middle;resizable=0;points=[];autosize=1;strokeColor=none;fillColor=none;fontStyle=1" parent="1" vertex="1">
          <mxGeometry x="666" y="903" width="30" height="30" as="geometry" />
        </mxCell>
        <mxCell id="Wq6IvpQs6uBBfWCSo5gb-136" style="edgeStyle=orthogonalEdgeStyle;rounded=0;orthogonalLoop=1;jettySize=auto;html=1;exitX=0;exitY=0.5;exitDx=0;exitDy=0;" parent="1" source="Wq6IvpQs6uBBfWCSo5gb-134" target="Wq6IvpQs6uBBfWCSo5gb-135" edge="1">
          <mxGeometry relative="1" as="geometry" />
        </mxCell>
        <mxCell id="Wq6IvpQs6uBBfWCSo5gb-134" value="Read&amp;nbsp;public RSA key that is written by the SYS_IMG" style="rounded=0;whiteSpace=wrap;html=1;fillColor=#a20025;fontColor=#ffffff;strokeColor=#6F0000;fontStyle=1" parent="1" vertex="1">
          <mxGeometry x="450" y="1640" width="170" height="40" as="geometry" />
        </mxCell>
        <mxCell id="Wq6IvpQs6uBBfWCSo5gb-137" style="edgeStyle=orthogonalEdgeStyle;rounded=0;orthogonalLoop=1;jettySize=auto;html=1;exitX=0;exitY=0.5;exitDx=0;exitDy=0;" parent="1" source="Wq6IvpQs6uBBfWCSo5gb-135" target="Wq6IvpQs6uBBfWCSo5gb-63" edge="1">
          <mxGeometry relative="1" as="geometry" />
        </mxCell>
        <mxCell id="Wq6IvpQs6uBBfWCSo5gb-135" value="Verify&amp;nbsp; U-Boot&lt;br&gt;(EL2)" style="rhombus;whiteSpace=wrap;html=1;fontStyle=1;fillColor=#008a00;fontColor=#ffffff;strokeColor=#005700;" parent="1" vertex="1">
          <mxGeometry x="275" y="1620" width="130" height="80" as="geometry" />
        </mxCell>
        <mxCell id="Wq6IvpQs6uBBfWCSo5gb-138" value="Verified" style="text;html=1;align=center;verticalAlign=middle;resizable=0;points=[];autosize=1;strokeColor=none;fillColor=none;fontStyle=1" parent="1" vertex="1">
          <mxGeometry x="225" y="1620" width="70" height="30" as="geometry" />
        </mxCell>
        <mxCell id="Wq6IvpQs6uBBfWCSo5gb-143" style="edgeStyle=orthogonalEdgeStyle;rounded=0;orthogonalLoop=1;jettySize=auto;html=1;exitX=1;exitY=0.5;exitDx=0;exitDy=0;" parent="1" source="Wq6IvpQs6uBBfWCSo5gb-140" target="Wq6IvpQs6uBBfWCSo5gb-142" edge="1">
          <mxGeometry relative="1" as="geometry" />
        </mxCell>
        <mxCell id="Wq6IvpQs6uBBfWCSo5gb-140" value="FIT Verify&lt;br&gt;Kernel?" style="rhombus;whiteSpace=wrap;html=1;fontStyle=1;fillColor=#008a00;fontColor=#ffffff;strokeColor=#005700;" parent="1" vertex="1">
          <mxGeometry x="90" y="1720" width="130" height="80" as="geometry" />
        </mxCell>
        <mxCell id="Wq6IvpQs6uBBfWCSo5gb-142" value="Boot Kernel" style="rounded=0;whiteSpace=wrap;html=1;fillColor=#008a00;fontColor=#ffffff;strokeColor=#005700;fontStyle=1" parent="1" vertex="1">
          <mxGeometry x="255" y="1740" width="170" height="40" as="geometry" />
        </mxCell>
        <mxCell id="Wq6IvpQs6uBBfWCSo5gb-144" value="Verified" style="text;html=1;align=center;verticalAlign=middle;resizable=0;points=[];autosize=1;strokeColor=none;fillColor=none;fontStyle=1" parent="1" vertex="1">
          <mxGeometry x="188" y="1724" width="70" height="30" as="geometry" />
        </mxCell>
        <mxCell id="Wq6IvpQs6uBBfWCSo5gb-139" style="edgeStyle=orthogonalEdgeStyle;rounded=0;orthogonalLoop=1;jettySize=auto;html=1;exitX=1;exitY=0.5;exitDx=0;exitDy=0;entryX=1;entryY=0.5;entryDx=0;entryDy=0;" parent="1" source="Wq6IvpQs6uBBfWCSo5gb-88" target="Wq6IvpQs6uBBfWCSo5gb-134" edge="1">
          <mxGeometry relative="1" as="geometry">
            <Array as="points">
              <mxPoint x="700" y="925" />
              <mxPoint x="700" y="1660" />
            </Array>
          </mxGeometry>
        </mxCell>
        <mxCell id="Wq6IvpQs6uBBfWCSo5gb-147" style="edgeStyle=orthogonalEdgeStyle;rounded=0;orthogonalLoop=1;jettySize=auto;html=1;exitX=0.5;exitY=1;exitDx=0;exitDy=0;" parent="1" source="Wq6IvpQs6uBBfWCSo5gb-145" target="Wq6IvpQs6uBBfWCSo5gb-146" edge="1">
          <mxGeometry relative="1" as="geometry" />
        </mxCell>
        <mxCell id="Wq6IvpQs6uBBfWCSo5gb-145" value="BootROM" style="rounded=1;whiteSpace=wrap;html=1;fillColor=#008a00;strokeColor=#005700;fontColor=#ffffff;fontStyle=1" parent="1" vertex="1">
          <mxGeometry x="250" y="2090" width="140" height="40" as="geometry" />
        </mxCell>
        <mxCell id="Wq6IvpQs6uBBfWCSo5gb-154" style="edgeStyle=orthogonalEdgeStyle;rounded=0;orthogonalLoop=1;jettySize=auto;html=1;exitX=0.5;exitY=1;exitDx=0;exitDy=0;entryX=0.5;entryY=0;entryDx=0;entryDy=0;" parent="1" source="Wq6IvpQs6uBBfWCSo5gb-146" target="Wq6IvpQs6uBBfWCSo5gb-153" edge="1">
          <mxGeometry relative="1" as="geometry" />
        </mxCell>
        <mxCell id="Wq6IvpQs6uBBfWCSo5gb-146" value="Read IVT" style="rounded=0;whiteSpace=wrap;html=1;fillColor=#0050ef;fontColor=#ffffff;strokeColor=#001DBC;fontStyle=1" parent="1" vertex="1">
          <mxGeometry x="235" y="2180" width="170" height="40" as="geometry" />
        </mxCell>
        <mxCell id="Wq6IvpQs6uBBfWCSo5gb-150" value="" style="group" parent="1" vertex="1" connectable="0">
          <mxGeometry x="90" y="2160" width="131.5" height="58" as="geometry" />
        </mxCell>
        <mxCell id="Wq6IvpQs6uBBfWCSo5gb-148" value="" style="sketch=0;pointerEvents=1;shadow=0;dashed=0;html=1;strokeColor=none;fillColor=#005F4B;labelPosition=center;verticalLabelPosition=bottom;verticalAlign=top;align=center;outlineConnect=0;shape=mxgraph.veeam2.sd_card;" parent="Wq6IvpQs6uBBfWCSo5gb-150" vertex="1">
          <mxGeometry x="48.5" y="26" width="23" height="28.000000000000004" as="geometry" />
        </mxCell>
        <mxCell id="Wq6IvpQs6uBBfWCSo5gb-149" value="SD/EMMC/FLASH" style="text;html=1;align=center;verticalAlign=middle;resizable=0;points=[];autosize=1;strokeColor=none;fillColor=none;fontStyle=1" parent="Wq6IvpQs6uBBfWCSo5gb-150" vertex="1">
          <mxGeometry width="120" height="30" as="geometry" />
        </mxCell>
        <mxCell id="Wq6IvpQs6uBBfWCSo5gb-152" value="seek=0" style="text;html=1;align=center;verticalAlign=middle;resizable=0;points=[];autosize=1;strokeColor=none;fillColor=none;" parent="Wq6IvpQs6uBBfWCSo5gb-150" vertex="1">
          <mxGeometry x="75.5" y="17" width="60" height="30" as="geometry" />
        </mxCell>
        <mxCell id="Wq6IvpQs6uBBfWCSo5gb-151" style="edgeStyle=orthogonalEdgeStyle;rounded=0;orthogonalLoop=1;jettySize=auto;html=1;" parent="1" source="Wq6IvpQs6uBBfWCSo5gb-148" target="Wq6IvpQs6uBBfWCSo5gb-146" edge="1">
          <mxGeometry relative="1" as="geometry" />
        </mxCell>
        <mxCell id="Wq6IvpQs6uBBfWCSo5gb-156" style="edgeStyle=orthogonalEdgeStyle;rounded=0;orthogonalLoop=1;jettySize=auto;html=1;exitX=0.5;exitY=1;exitDx=0;exitDy=0;entryX=0.5;entryY=0;entryDx=0;entryDy=0;" parent="1" source="Wq6IvpQs6uBBfWCSo5gb-153" target="Wq6IvpQs6uBBfWCSo5gb-155" edge="1">
          <mxGeometry relative="1" as="geometry" />
        </mxCell>
        <mxCell id="Wq6IvpQs6uBBfWCSo5gb-153" value="Parse DCD/HSE/Application Bootloader address" style="rounded=0;whiteSpace=wrap;html=1;fillColor=#0050ef;fontColor=#ffffff;strokeColor=#001DBC;fontStyle=1" parent="1" vertex="1">
          <mxGeometry x="235" y="2250" width="170" height="40" as="geometry" />
        </mxCell>
        <mxCell id="Wq6IvpQs6uBBfWCSo5gb-159" style="edgeStyle=orthogonalEdgeStyle;rounded=0;orthogonalLoop=1;jettySize=auto;html=1;exitX=0.5;exitY=1;exitDx=0;exitDy=0;" parent="1" source="Wq6IvpQs6uBBfWCSo5gb-155" target="Wq6IvpQs6uBBfWCSo5gb-158" edge="1">
          <mxGeometry relative="1" as="geometry" />
        </mxCell>
        <mxCell id="Wq6IvpQs6uBBfWCSo5gb-155" value="goto address" style="rounded=0;whiteSpace=wrap;html=1;fillColor=#0050ef;fontColor=#ffffff;strokeColor=#001DBC;fontStyle=1" parent="1" vertex="1">
          <mxGeometry x="235" y="2330" width="170" height="40" as="geometry" />
        </mxCell>
        <mxCell id="Wq6IvpQs6uBBfWCSo5gb-158" value="....." style="text;html=1;align=center;verticalAlign=middle;resizable=0;points=[];autosize=1;strokeColor=none;fillColor=none;" parent="1" vertex="1">
          <mxGeometry x="300" y="2410" width="40" height="30" as="geometry" />
        </mxCell>
        <mxCell id="Wq6IvpQs6uBBfWCSo5gb-165" style="edgeStyle=entityRelationEdgeStyle;rounded=0;orthogonalLoop=1;jettySize=auto;html=1;exitX=1;exitY=0.5;exitDx=0;exitDy=0;entryX=0;entryY=0.25;entryDx=0;entryDy=0;" parent="1" source="Wq6IvpQs6uBBfWCSo5gb-160" target="Wq6IvpQs6uBBfWCSo5gb-163" edge="1">
          <mxGeometry relative="1" as="geometry" />
        </mxCell>
        <mxCell id="Wq6IvpQs6uBBfWCSo5gb-160" value="TF-A&#39;s bl2.bin" style="rounded=0;whiteSpace=wrap;html=1;fillColor=#647687;fontColor=#ffffff;strokeColor=#314354;fontStyle=1" parent="1" vertex="1">
          <mxGeometry x="-270" y="2530" width="70" height="60" as="geometry" />
        </mxCell>
        <mxCell id="Wq6IvpQs6uBBfWCSo5gb-166" style="edgeStyle=orthogonalEdgeStyle;curved=1;rounded=0;orthogonalLoop=1;jettySize=auto;html=1;exitX=1;exitY=0.5;exitDx=0;exitDy=0;" parent="1" source="Wq6IvpQs6uBBfWCSo5gb-161" target="Wq6IvpQs6uBBfWCSo5gb-163" edge="1">
          <mxGeometry relative="1" as="geometry" />
        </mxCell>
        <mxCell id="Wq6IvpQs6uBBfWCSo5gb-161" value="BL31" style="rounded=0;whiteSpace=wrap;html=1;fillColor=#647687;fontColor=#ffffff;strokeColor=#314354;fontStyle=1" parent="1" vertex="1">
          <mxGeometry x="-270" y="2600" width="70" height="60" as="geometry" />
        </mxCell>
        <mxCell id="Wq6IvpQs6uBBfWCSo5gb-167" style="edgeStyle=entityRelationEdgeStyle;rounded=0;orthogonalLoop=1;jettySize=auto;html=1;exitX=1;exitY=0.5;exitDx=0;exitDy=0;entryX=0;entryY=0.75;entryDx=0;entryDy=0;" parent="1" source="Wq6IvpQs6uBBfWCSo5gb-162" target="Wq6IvpQs6uBBfWCSo5gb-163" edge="1">
          <mxGeometry relative="1" as="geometry" />
        </mxCell>
        <mxCell id="Wq6IvpQs6uBBfWCSo5gb-162" value="BL33 Boot Application" style="rounded=0;whiteSpace=wrap;html=1;fillColor=#647687;fontColor=#ffffff;strokeColor=#314354;fontStyle=1" parent="1" vertex="1">
          <mxGeometry x="-270" y="2670" width="70" height="60" as="geometry" />
        </mxCell>
        <mxCell id="Wq6IvpQs6uBBfWCSo5gb-188" style="edgeStyle=orthogonalEdgeStyle;curved=1;rounded=0;orthogonalLoop=1;jettySize=auto;html=1;exitX=0.5;exitY=1;exitDx=0;exitDy=0;" parent="1" source="Wq6IvpQs6uBBfWCSo5gb-163" target="Wq6IvpQs6uBBfWCSo5gb-170" edge="1">
          <mxGeometry relative="1" as="geometry" />
        </mxCell>
        <mxCell id="Wq6IvpQs6uBBfWCSo5gb-163" value="NXP&lt;br&gt;FIPTOOL" style="rounded=0;whiteSpace=wrap;html=1;fontStyle=1;fillColor=#0050ef;fontColor=#ffffff;strokeColor=#001DBC;" parent="1" vertex="1">
          <mxGeometry x="-70" y="2600" width="80" height="60" as="geometry" />
        </mxCell>
        <mxCell id="Wq6IvpQs6uBBfWCSo5gb-174" style="edgeStyle=orthogonalEdgeStyle;curved=1;rounded=0;orthogonalLoop=1;jettySize=auto;html=1;exitX=0.5;exitY=1;exitDx=0;exitDy=0;fontStyle=1" parent="1" source="Wq6IvpQs6uBBfWCSo5gb-170" target="Wq6IvpQs6uBBfWCSo5gb-173" edge="1">
          <mxGeometry relative="1" as="geometry" />
        </mxCell>
        <mxCell id="Wq6IvpQs6uBBfWCSo5gb-190" style="edgeStyle=orthogonalEdgeStyle;curved=1;rounded=0;orthogonalLoop=1;jettySize=auto;html=1;exitX=1;exitY=0.5;exitDx=0;exitDy=0;fontStyle=1" parent="1" source="Wq6IvpQs6uBBfWCSo5gb-170" target="Wq6IvpQs6uBBfWCSo5gb-189" edge="1">
          <mxGeometry relative="1" as="geometry" />
        </mxCell>
        <mxCell id="Wq6IvpQs6uBBfWCSo5gb-170" value="fip.bin" style="rounded=0;whiteSpace=wrap;html=1;fontStyle=1;fillColor=#647687;fontColor=#ffffff;strokeColor=#314354;" parent="1" vertex="1">
          <mxGeometry x="-70" y="2700" width="80" height="60" as="geometry" />
        </mxCell>
        <mxCell id="Wq6IvpQs6uBBfWCSo5gb-176" style="edgeStyle=orthogonalEdgeStyle;curved=1;rounded=0;orthogonalLoop=1;jettySize=auto;html=1;exitX=1;exitY=0.5;exitDx=0;exitDy=0;fontStyle=1" parent="1" source="Wq6IvpQs6uBBfWCSo5gb-173" target="Wq6IvpQs6uBBfWCSo5gb-175" edge="1">
          <mxGeometry relative="1" as="geometry" />
        </mxCell>
        <mxCell id="Wq6IvpQs6uBBfWCSo5gb-173" value="dd offset&lt;br&gt;0x15e100" style="rounded=0;whiteSpace=wrap;html=1;fontStyle=1;fillColor=#0050ef;fontColor=#ffffff;strokeColor=#001DBC;" parent="1" vertex="1">
          <mxGeometry x="-70" y="2790" width="80" height="60" as="geometry" />
        </mxCell>
        <mxCell id="Wq6IvpQs6uBBfWCSo5gb-179" style="edgeStyle=orthogonalEdgeStyle;curved=1;rounded=0;orthogonalLoop=1;jettySize=auto;html=1;exitX=1;exitY=0.5;exitDx=0;exitDy=0;entryX=0;entryY=0.5;entryDx=0;entryDy=0;fontStyle=1" parent="1" source="Wq6IvpQs6uBBfWCSo5gb-175" target="Wq6IvpQs6uBBfWCSo5gb-177" edge="1">
          <mxGeometry relative="1" as="geometry" />
        </mxCell>
        <mxCell id="Wq6IvpQs6uBBfWCSo5gb-175" value="tosign-fip.bin" style="rounded=0;whiteSpace=wrap;html=1;fontStyle=1;fillColor=#647687;fontColor=#ffffff;strokeColor=#314354;" parent="1" vertex="1">
          <mxGeometry x="42.5" y="2790" width="83" height="60" as="geometry" />
        </mxCell>
        <mxCell id="Wq6IvpQs6uBBfWCSo5gb-185" style="edgeStyle=orthogonalEdgeStyle;curved=1;rounded=0;orthogonalLoop=1;jettySize=auto;html=1;exitX=1;exitY=0.5;exitDx=0;exitDy=0;fontStyle=1" parent="1" source="Wq6IvpQs6uBBfWCSo5gb-177" target="Wq6IvpQs6uBBfWCSo5gb-183" edge="1">
          <mxGeometry relative="1" as="geometry" />
        </mxCell>
        <mxCell id="Wq6IvpQs6uBBfWCSo5gb-177" value="sign server" style="rounded=0;whiteSpace=wrap;html=1;fontStyle=1;fillColor=#0050ef;fontColor=#ffffff;strokeColor=#001DBC;" parent="1" vertex="1">
          <mxGeometry x="158" y="2790" width="95" height="60" as="geometry" />
        </mxCell>
        <mxCell id="Wq6IvpQs6uBBfWCSo5gb-178" value="" style="sketch=0;aspect=fixed;pointerEvents=1;shadow=0;dashed=0;html=1;strokeColor=none;labelPosition=center;verticalLabelPosition=bottom;verticalAlign=top;align=center;fillColor=#00188D;shape=mxgraph.mscae.enterprise.key_permissions;fontStyle=1" parent="1" vertex="1">
          <mxGeometry x="235.60000000000002" y="2810" width="10.4" height="20" as="geometry" />
        </mxCell>
        <mxCell id="Wq6IvpQs6uBBfWCSo5gb-191" style="edgeStyle=orthogonalEdgeStyle;curved=1;rounded=0;orthogonalLoop=1;jettySize=auto;html=1;exitX=0.5;exitY=0;exitDx=0;exitDy=0;fontStyle=1" parent="1" source="Wq6IvpQs6uBBfWCSo5gb-183" target="Wq6IvpQs6uBBfWCSo5gb-189" edge="1">
          <mxGeometry relative="1" as="geometry" />
        </mxCell>
        <mxCell id="Wq6IvpQs6uBBfWCSo5gb-183" value="fip.bin.signature" style="rounded=0;whiteSpace=wrap;html=1;fontStyle=1;fillColor=#647687;fontColor=#ffffff;strokeColor=#314354;" parent="1" vertex="1">
          <mxGeometry x="273.5" y="2790" width="96.5" height="60" as="geometry" />
        </mxCell>
        <mxCell id="Wq6IvpQs6uBBfWCSo5gb-193" style="edgeStyle=orthogonalEdgeStyle;curved=1;rounded=0;orthogonalLoop=1;jettySize=auto;html=1;exitX=1;exitY=0.5;exitDx=0;exitDy=0;fontStyle=1" parent="1" source="Wq6IvpQs6uBBfWCSo5gb-189" target="Wq6IvpQs6uBBfWCSo5gb-192" edge="1">
          <mxGeometry relative="1" as="geometry" />
        </mxCell>
        <mxCell id="Wq6IvpQs6uBBfWCSo5gb-189" value="NXP&lt;br&gt;FIPTOOL" style="rounded=0;whiteSpace=wrap;html=1;fontStyle=1;fillColor=#0050ef;fontColor=#ffffff;strokeColor=#001DBC;" parent="1" vertex="1">
          <mxGeometry x="272.5" y="2700" width="97.5" height="60" as="geometry" />
        </mxCell>
        <mxCell id="Wq6IvpQs6uBBfWCSo5gb-192" value="signed_fip.bin" style="rounded=0;whiteSpace=wrap;html=1;fontStyle=1;fillColor=#647687;fontColor=#ffffff;strokeColor=#314354;" parent="1" vertex="1">
          <mxGeometry x="399" y="2700" width="97.5" height="60" as="geometry" />
        </mxCell>
        <mxCell id="Wq6IvpQs6uBBfWCSo5gb-194" value="" style="rounded=0;whiteSpace=wrap;html=1;fontStyle=1;fillColor=#0050ef;fontColor=#ffffff;strokeColor=#001DBC;" parent="1" vertex="1">
          <mxGeometry x="-290" y="3003" width="110" height="217" as="geometry" />
        </mxCell>
        <mxCell id="Wq6IvpQs6uBBfWCSo5gb-195" value="NVM" style="text;html=1;align=center;verticalAlign=middle;resizable=0;points=[];autosize=1;strokeColor=none;fillColor=none;fontStyle=1" parent="1" vertex="1">
          <mxGeometry x="-260" y="2973" width="50" height="30" as="geometry" />
        </mxCell>
        <mxCell id="Wq6IvpQs6uBBfWCSo5gb-196" value="IVT" style="rounded=0;whiteSpace=wrap;html=1;fillColor=#e3c800;fontColor=#000000;strokeColor=#B09500;" parent="1" vertex="1">
          <mxGeometry x="-290" y="3003" width="110" height="27" as="geometry" />
        </mxCell>
        <mxCell id="Wq6IvpQs6uBBfWCSo5gb-197" value="FIP.s32" style="rounded=0;whiteSpace=wrap;html=1;fillColor=#fa6800;fontColor=#000000;strokeColor=#C73500;" parent="1" vertex="1">
          <mxGeometry x="-290" y="3030" width="110" height="30" as="geometry" />
        </mxCell>
        <mxCell id="Wq6IvpQs6uBBfWCSo5gb-198" value="signed_fip.bin" style="rounded=0;whiteSpace=wrap;html=1;fillColor=#60a917;strokeColor=#2D7600;fontColor=#ffffff;" parent="1" vertex="1">
          <mxGeometry x="-290" y="3060" width="110" height="130" as="geometry" />
        </mxCell>
        <mxCell id="Wq6IvpQs6uBBfWCSo5gb-199" value="" style="shape=curlyBracket;whiteSpace=wrap;html=1;rounded=1;flipH=1;labelPosition=right;verticalLabelPosition=middle;align=left;verticalAlign=middle;" parent="1" vertex="1">
          <mxGeometry x="-180" y="3060" width="20" height="90" as="geometry" />
        </mxCell>
        <mxCell id="Wq6IvpQs6uBBfWCSo5gb-200" value="" style="shape=curlyBracket;whiteSpace=wrap;html=1;rounded=1;flipH=1;labelPosition=right;verticalLabelPosition=middle;align=left;verticalAlign=middle;" parent="1" vertex="1">
          <mxGeometry x="-180" y="3150" width="20" height="40" as="geometry" />
        </mxCell>
        <mxCell id="Wq6IvpQs6uBBfWCSo5gb-229" style="edgeStyle=orthogonalEdgeStyle;curved=1;rounded=0;orthogonalLoop=1;jettySize=auto;html=1;" parent="1" source="Wq6IvpQs6uBBfWCSo5gb-201" target="Wq6IvpQs6uBBfWCSo5gb-223" edge="1">
          <mxGeometry relative="1" as="geometry">
            <Array as="points">
              <mxPoint x="-75" y="3170" />
            </Array>
          </mxGeometry>
        </mxCell>
        <mxCell id="Wq6IvpQs6uBBfWCSo5gb-201" value="signature" style="text;html=1;align=center;verticalAlign=middle;resizable=0;points=[];autosize=1;strokeColor=none;fillColor=none;fontStyle=1;labelBorderColor=default;" parent="1" vertex="1">
          <mxGeometry x="-164.5" y="3155" width="80" height="30" as="geometry" />
        </mxCell>
        <mxCell id="Wq6IvpQs6uBBfWCSo5gb-202" value="fip.bin" style="text;html=1;align=center;verticalAlign=middle;resizable=0;points=[];autosize=1;strokeColor=none;fillColor=none;fontStyle=1;labelBorderColor=default;" parent="1" vertex="1">
          <mxGeometry x="-164.5" y="3090" width="60" height="30" as="geometry" />
        </mxCell>
        <mxCell id="Wq6IvpQs6uBBfWCSo5gb-203" value="" style="pointerEvents=1;shadow=0;dashed=0;html=1;strokeColor=none;fillColor=#4495D1;labelPosition=center;verticalLabelPosition=bottom;verticalAlign=top;align=center;outlineConnect=0;shape=mxgraph.veeam.sd_card;" parent="1" vertex="1">
          <mxGeometry x="-440" y="3220" width="32.4" height="38.8" as="geometry" />
        </mxCell>
        <mxCell id="Wq6IvpQs6uBBfWCSo5gb-204" value="" style="endArrow=classic;html=1;rounded=0;curved=1;entryX=-0.023;entryY=0.34;entryDx=0;entryDy=0;entryPerimeter=0;" parent="1" source="Wq6IvpQs6uBBfWCSo5gb-203" target="Wq6IvpQs6uBBfWCSo5gb-198" edge="1">
          <mxGeometry width="50" height="50" relative="1" as="geometry">
            <mxPoint x="-447.6" y="3240" as="sourcePoint" />
            <mxPoint x="-397.6" y="3190" as="targetPoint" />
          </mxGeometry>
        </mxCell>
        <mxCell id="Wq6IvpQs6uBBfWCSo5gb-207" value="" style="group" parent="1" vertex="1" connectable="0">
          <mxGeometry x="-440" y="3310" width="165" height="80" as="geometry" />
        </mxCell>
        <mxCell id="Wq6IvpQs6uBBfWCSo5gb-205" value="" style="sketch=0;aspect=fixed;pointerEvents=1;shadow=0;dashed=0;html=1;strokeColor=#005700;labelPosition=center;verticalLabelPosition=bottom;verticalAlign=top;align=center;fillColor=#008a00;shape=mxgraph.mscae.enterprise.key_permissions;fontColor=#ffffff;" parent="Wq6IvpQs6uBBfWCSo5gb-207" vertex="1">
          <mxGeometry x="42" y="30" width="26" height="50" as="geometry" />
        </mxCell>
        <mxCell id="Wq6IvpQs6uBBfWCSo5gb-206" value="RSA Public Key" style="text;html=1;align=center;verticalAlign=middle;resizable=0;points=[];autosize=1;strokeColor=none;fillColor=none;fontStyle=1" parent="Wq6IvpQs6uBBfWCSo5gb-207" vertex="1">
          <mxGeometry width="110" height="30" as="geometry" />
        </mxCell>
        <mxCell id="Wq6IvpQs6uBBfWCSo5gb-209" value="" style="shape=flexArrow;endArrow=classic;html=1;rounded=0;curved=1;fillColor=#a20025;strokeColor=#6F0000;" parent="Wq6IvpQs6uBBfWCSo5gb-207" edge="1">
          <mxGeometry width="50" height="50" relative="1" as="geometry">
            <mxPoint x="90" y="54.570000000000164" as="sourcePoint" />
            <mxPoint x="140" y="54.570000000000164" as="targetPoint" />
          </mxGeometry>
        </mxCell>
        <mxCell id="Wq6IvpQs6uBBfWCSo5gb-230" value="&amp;nbsp;Key catalog" style="rounded=0;whiteSpace=wrap;html=1;fontStyle=1;fillColor=#76608a;fontColor=#ffffff;strokeColor=#432D57;verticalAlign=bottom;" parent="1" vertex="1">
          <mxGeometry x="-285" y="3306.5" width="100" height="87.5" as="geometry" />
        </mxCell>
        <mxCell id="Wq6IvpQs6uBBfWCSo5gb-208" value="" style="endArrow=classic;html=1;rounded=0;curved=1;" parent="1" source="Wq6IvpQs6uBBfWCSo5gb-203" target="Wq6IvpQs6uBBfWCSo5gb-206" edge="1">
          <mxGeometry width="50" height="50" relative="1" as="geometry">
            <mxPoint x="-130" y="3530" as="sourcePoint" />
            <mxPoint x="-80" y="3480" as="targetPoint" />
          </mxGeometry>
        </mxCell>
        <mxCell id="Wq6IvpQs6uBBfWCSo5gb-226" style="edgeStyle=orthogonalEdgeStyle;curved=1;rounded=0;orthogonalLoop=1;jettySize=auto;html=1;entryX=0;entryY=0.5;entryDx=0;entryDy=0;" parent="1" source="Wq6IvpQs6uBBfWCSo5gb-230" target="Wq6IvpQs6uBBfWCSo5gb-223" edge="1">
          <mxGeometry relative="1" as="geometry" />
        </mxCell>
        <mxCell id="Wq6IvpQs6uBBfWCSo5gb-212" value="" style="sketch=0;aspect=fixed;pointerEvents=1;shadow=0;dashed=0;html=1;strokeColor=#005700;labelPosition=center;verticalLabelPosition=bottom;verticalAlign=top;align=center;fillColor=#008a00;shape=mxgraph.mscae.enterprise.key_permissions;fontColor=#ffffff;" parent="1" vertex="1">
          <mxGeometry x="-270" y="3340" width="15.6" height="30" as="geometry" />
        </mxCell>
        <mxCell id="Wq6IvpQs6uBBfWCSo5gb-213" value="self-provisioning" style="text;html=1;align=center;verticalAlign=middle;resizable=0;points=[];autosize=1;strokeColor=none;fillColor=none;fontStyle=1" parent="1" vertex="1">
          <mxGeometry x="-403" y="3388" width="120" height="30" as="geometry" />
        </mxCell>
        <mxCell id="Wq6IvpQs6uBBfWCSo5gb-214" value="RSA Public Key" style="text;html=1;align=center;verticalAlign=middle;resizable=0;points=[];autosize=1;strokeColor=none;fillColor=none;fontStyle=1" parent="1" vertex="1">
          <mxGeometry x="-290" y="3310" width="110" height="30" as="geometry" />
        </mxCell>
        <mxCell id="Wq6IvpQs6uBBfWCSo5gb-223" value="HSE RSA engine" style="rounded=0;whiteSpace=wrap;html=1;fillColor=#60a917;strokeColor=#2D7600;fontColor=#ffffff;fontStyle=1;verticalAlign=bottom;" parent="1" vertex="1">
          <mxGeometry x="-150" y="3330" width="150" height="40" as="geometry" />
        </mxCell>
        <mxCell id="Wq6IvpQs6uBBfWCSo5gb-228" style="edgeStyle=orthogonalEdgeStyle;curved=1;rounded=0;orthogonalLoop=1;jettySize=auto;html=1;entryX=0.75;entryY=0;entryDx=0;entryDy=0;" parent="1" source="Wq6IvpQs6uBBfWCSo5gb-202" target="Wq6IvpQs6uBBfWCSo5gb-223" edge="1">
          <mxGeometry relative="1" as="geometry">
            <Array as="points">
              <mxPoint x="-37" y="3110" />
            </Array>
          </mxGeometry>
        </mxCell>
        <mxCell id="Wq6IvpQs6uBBfWCSo5gb-233" value="" style="shape=flexArrow;endArrow=classic;html=1;rounded=0;curved=1;fillColor=#a20025;strokeColor=#6F0000;" parent="1" edge="1">
          <mxGeometry width="50" height="50" relative="1" as="geometry">
            <mxPoint x="20.5" y="3354.58" as="sourcePoint" />
            <mxPoint x="70.5" y="3354.58" as="targetPoint" />
          </mxGeometry>
        </mxCell>
        <mxCell id="AKbw9LmyPq3Rt259pDQ4-24" style="edgeStyle=orthogonalEdgeStyle;rounded=0;orthogonalLoop=1;jettySize=auto;html=1;entryX=1;entryY=0.5;entryDx=0;entryDy=0;curved=1;" parent="1" source="Wq6IvpQs6uBBfWCSo5gb-234" target="Wq6IvpQs6uBBfWCSo5gb-196" edge="1">
          <mxGeometry relative="1" as="geometry">
            <Array as="points">
              <mxPoint x="100" y="3017" />
            </Array>
          </mxGeometry>
        </mxCell>
        <mxCell id="Wq6IvpQs6uBBfWCSo5gb-234" value="result" style="text;html=1;align=center;verticalAlign=middle;resizable=0;points=[];autosize=1;strokeColor=none;fillColor=none;fontStyle=1" parent="1" vertex="1">
          <mxGeometry x="65.5" y="3340" width="60" height="30" as="geometry" />
        </mxCell>
        <mxCell id="Wq6IvpQs6uBBfWCSo5gb-240" style="edgeStyle=orthogonalEdgeStyle;curved=1;rounded=0;orthogonalLoop=1;jettySize=auto;html=1;exitX=0.5;exitY=1;exitDx=0;exitDy=0;" parent="1" source="Wq6IvpQs6uBBfWCSo5gb-235" target="Wq6IvpQs6uBBfWCSo5gb-236" edge="1">
          <mxGeometry relative="1" as="geometry" />
        </mxCell>
        <mxCell id="Wq6IvpQs6uBBfWCSo5gb-235" value="Root CA" style="rounded=0;whiteSpace=wrap;html=1;fontStyle=1;fillColor=#0050ef;fontColor=#ffffff;strokeColor=#001DBC;" parent="1" vertex="1">
          <mxGeometry x="399" y="3220" width="97.5" height="60" as="geometry" />
        </mxCell>
        <mxCell id="Wq6IvpQs6uBBfWCSo5gb-239" style="edgeStyle=orthogonalEdgeStyle;curved=1;rounded=0;orthogonalLoop=1;jettySize=auto;html=1;exitX=0.5;exitY=1;exitDx=0;exitDy=0;entryX=0.5;entryY=0;entryDx=0;entryDy=0;" parent="1" source="Wq6IvpQs6uBBfWCSo5gb-236" target="Wq6IvpQs6uBBfWCSo5gb-238" edge="1">
          <mxGeometry relative="1" as="geometry" />
        </mxCell>
        <mxCell id="Wq6IvpQs6uBBfWCSo5gb-236" value="intermediate CA" style="rounded=0;whiteSpace=wrap;html=1;fontStyle=1;fillColor=#0050ef;fontColor=#ffffff;strokeColor=#001DBC;" parent="1" vertex="1">
          <mxGeometry x="387.25" y="3334" width="121" height="60" as="geometry" />
        </mxCell>
        <mxCell id="Wq6IvpQs6uBBfWCSo5gb-238" value="S32g Kernel Signer" style="rounded=0;whiteSpace=wrap;html=1;fontStyle=1;fillColor=#0050ef;fontColor=#ffffff;strokeColor=#001DBC;" parent="1" vertex="1">
          <mxGeometry x="388" y="3447" width="121" height="60" as="geometry" />
        </mxCell>
        <mxCell id="Wq6IvpQs6uBBfWCSo5gb-241" value="root_ca.crt" style="text;html=1;align=center;verticalAlign=middle;resizable=0;points=[];autosize=1;strokeColor=none;fillColor=none;" parent="1" vertex="1">
          <mxGeometry x="310" y="3477" width="80" height="30" as="geometry" />
        </mxCell>
        <mxCell id="Wq6IvpQs6uBBfWCSo5gb-242" value="root_ca.crt" style="text;html=1;align=center;verticalAlign=middle;resizable=0;points=[];autosize=1;strokeColor=none;fillColor=none;" parent="1" vertex="1">
          <mxGeometry x="316" y="3370" width="80" height="30" as="geometry" />
        </mxCell>
        <mxCell id="Wq6IvpQs6uBBfWCSo5gb-243" value="signer.crt" style="text;html=1;align=center;verticalAlign=middle;resizable=0;points=[];autosize=1;strokeColor=none;fillColor=none;" parent="1" vertex="1">
          <mxGeometry x="318" y="3462" width="70" height="30" as="geometry" />
        </mxCell>
        <mxCell id="ngoskjnf7oLKVKvk5QpH-6" style="edgeStyle=entityRelationEdgeStyle;rounded=0;orthogonalLoop=1;jettySize=auto;html=1;exitX=1;exitY=0.25;exitDx=0;exitDy=0;" parent="1" source="ngoskjnf7oLKVKvk5QpH-1" target="ngoskjnf7oLKVKvk5QpH-2" edge="1">
          <mxGeometry relative="1" as="geometry" />
        </mxCell>
        <mxCell id="ngoskjnf7oLKVKvk5QpH-7" style="edgeStyle=entityRelationEdgeStyle;rounded=0;orthogonalLoop=1;jettySize=auto;html=1;exitX=1;exitY=0.75;exitDx=0;exitDy=0;" parent="1" source="ngoskjnf7oLKVKvk5QpH-1" target="ngoskjnf7oLKVKvk5QpH-4" edge="1">
          <mxGeometry relative="1" as="geometry" />
        </mxCell>
        <mxCell id="ngoskjnf7oLKVKvk5QpH-8" style="edgeStyle=entityRelationEdgeStyle;rounded=0;orthogonalLoop=1;jettySize=auto;html=1;exitX=1;exitY=0.5;exitDx=0;exitDy=0;" parent="1" source="ngoskjnf7oLKVKvk5QpH-1" target="ngoskjnf7oLKVKvk5QpH-3" edge="1">
          <mxGeometry relative="1" as="geometry" />
        </mxCell>
        <mxCell id="ngoskjnf7oLKVKvk5QpH-10" style="edgeStyle=entityRelationEdgeStyle;rounded=0;orthogonalLoop=1;jettySize=auto;html=1;exitX=0.75;exitY=0;exitDx=0;exitDy=0;" parent="1" source="ngoskjnf7oLKVKvk5QpH-1" target="ngoskjnf7oLKVKvk5QpH-9" edge="1">
          <mxGeometry relative="1" as="geometry" />
        </mxCell>
        <mxCell id="ngoskjnf7oLKVKvk5QpH-1" value="release package&lt;br&gt;(tar.gz)" style="rounded=1;whiteSpace=wrap;html=1;fontStyle=1;fillColor=#d5e8d4;strokeColor=#82b366;" parent="1" vertex="1">
          <mxGeometry x="489" y="3012.5" width="150" height="45" as="geometry" />
        </mxCell>
        <mxCell id="ngoskjnf7oLKVKvk5QpH-13" style="edgeStyle=entityRelationEdgeStyle;rounded=0;orthogonalLoop=1;jettySize=auto;html=1;exitX=1;exitY=0.5;exitDx=0;exitDy=0;entryX=0;entryY=0.25;entryDx=0;entryDy=0;" parent="1" source="ngoskjnf7oLKVKvk5QpH-2" target="ngoskjnf7oLKVKvk5QpH-11" edge="1">
          <mxGeometry relative="1" as="geometry" />
        </mxCell>
        <mxCell id="ngoskjnf7oLKVKvk5QpH-2" value="&lt;b&gt;ramdisk tarball&lt;br&gt;&lt;/b&gt;s32g-bsp33-rootfs.cpio.gz.u-boot" style="rounded=1;whiteSpace=wrap;html=1;fillColor=#dae8fc;strokeColor=#6c8ebf;" parent="1" vertex="1">
          <mxGeometry x="710" y="2940" width="183" height="40" as="geometry" />
        </mxCell>
        <mxCell id="ngoskjnf7oLKVKvk5QpH-14" style="edgeStyle=entityRelationEdgeStyle;rounded=0;orthogonalLoop=1;jettySize=auto;html=1;exitX=1;exitY=0.5;exitDx=0;exitDy=0;" parent="1" source="ngoskjnf7oLKVKvk5QpH-3" target="ngoskjnf7oLKVKvk5QpH-11" edge="1">
          <mxGeometry relative="1" as="geometry" />
        </mxCell>
        <mxCell id="ngoskjnf7oLKVKvk5QpH-3" value="&lt;b&gt;cryptsetup binaries&lt;br&gt;&lt;/b&gt;cryptsetup_release.tar.gz" style="rounded=1;whiteSpace=wrap;html=1;fillColor=#dae8fc;strokeColor=#6c8ebf;" parent="1" vertex="1">
          <mxGeometry x="710" y="3015" width="183" height="40" as="geometry" />
        </mxCell>
        <mxCell id="ngoskjnf7oLKVKvk5QpH-16" style="edgeStyle=entityRelationEdgeStyle;rounded=0;orthogonalLoop=1;jettySize=auto;html=1;exitX=1;exitY=0.75;exitDx=0;exitDy=0;entryX=0;entryY=0.75;entryDx=0;entryDy=0;" parent="1" source="ngoskjnf7oLKVKvk5QpH-4" target="ngoskjnf7oLKVKvk5QpH-11" edge="1">
          <mxGeometry relative="1" as="geometry" />
        </mxCell>
        <mxCell id="ngoskjnf7oLKVKvk5QpH-4" value="&lt;b&gt;pkcs11 and HSE binaries&lt;br&gt;&lt;/b&gt;pkcs11-hse-release.tar.gz" style="rounded=1;whiteSpace=wrap;html=1;fillColor=#dae8fc;strokeColor=#6c8ebf;" parent="1" vertex="1">
          <mxGeometry x="710" y="3085" width="183" height="40" as="geometry" />
        </mxCell>
        <mxCell id="ngoskjnf7oLKVKvk5QpH-18" style="edgeStyle=orthogonalEdgeStyle;rounded=0;orthogonalLoop=1;jettySize=auto;html=1;entryX=0.5;entryY=0;entryDx=0;entryDy=0;curved=1;" parent="1" source="ngoskjnf7oLKVKvk5QpH-9" target="ngoskjnf7oLKVKvk5QpH-11" edge="1">
          <mxGeometry relative="1" as="geometry" />
        </mxCell>
        <mxCell id="ngoskjnf7oLKVKvk5QpH-9" value="secure_boot" style="rounded=1;whiteSpace=wrap;html=1;fontStyle=1;fillColor=#f8cecc;strokeColor=#b85450;" parent="1" vertex="1">
          <mxGeometry x="710" y="2860" width="180" height="45" as="geometry" />
        </mxCell>
        <mxCell id="ngoskjnf7oLKVKvk5QpH-11" value="secure_boot&lt;br&gt;&lt;span style=&quot;font-weight: normal;&quot;&gt;s32g274a_evb_release_secure_version.tar.gz&lt;/span&gt;" style="rounded=1;whiteSpace=wrap;html=1;fontStyle=1;fillColor=#f8cecc;strokeColor=#b85450;" parent="1" vertex="1">
          <mxGeometry x="980" y="3012.5" width="260" height="45" as="geometry" />
        </mxCell>
        <mxCell id="ngoskjnf7oLKVKvk5QpH-17" value="Merge" style="text;html=1;align=center;verticalAlign=middle;resizable=0;points=[];autosize=1;strokeColor=none;fillColor=none;" parent="1" vertex="1">
          <mxGeometry x="890" y="3000" width="60" height="30" as="geometry" />
        </mxCell>
        <mxCell id="ngoskjnf7oLKVKvk5QpH-19" value="Merge" style="text;html=1;align=center;verticalAlign=middle;resizable=0;points=[];autosize=1;strokeColor=none;fillColor=none;" parent="1" vertex="1">
          <mxGeometry x="980" y="2922" width="60" height="30" as="geometry" />
        </mxCell>
        <mxCell id="ngoskjnf7oLKVKvk5QpH-27" style="edgeStyle=none;rounded=0;orthogonalLoop=1;jettySize=auto;html=1;exitX=0.5;exitY=1;exitDx=0;exitDy=0;" parent="1" source="ngoskjnf7oLKVKvk5QpH-20" target="ngoskjnf7oLKVKvk5QpH-25" edge="1">
          <mxGeometry relative="1" as="geometry" />
        </mxCell>
        <mxCell id="ngoskjnf7oLKVKvk5QpH-20" value="hse_boot_enable" style="rounded=1;whiteSpace=wrap;html=1;fontStyle=1;fillColor=#d5e8d4;strokeColor=#82b366;" parent="1" vertex="1">
          <mxGeometry x="770" y="3327.5" width="150" height="45" as="geometry" />
        </mxCell>
        <mxCell id="ngoskjnf7oLKVKvk5QpH-22" style="rounded=0;orthogonalLoop=1;jettySize=auto;html=1;entryX=0.5;entryY=0;entryDx=0;entryDy=0;" parent="1" source="ngoskjnf7oLKVKvk5QpH-21" target="ngoskjnf7oLKVKvk5QpH-20" edge="1">
          <mxGeometry relative="1" as="geometry" />
        </mxCell>
        <mxCell id="ngoskjnf7oLKVKvk5QpH-21" value="" style="sketch=0;pointerEvents=1;shadow=0;dashed=0;html=1;strokeColor=none;fillColor=#005F4B;labelPosition=center;verticalLabelPosition=bottom;verticalAlign=top;align=center;outlineConnect=0;shape=mxgraph.veeam2.sd_card;" parent="1" vertex="1">
          <mxGeometry x="833.5" y="3258.8" width="23" height="28.000000000000004" as="geometry" />
        </mxCell>
        <mxCell id="ngoskjnf7oLKVKvk5QpH-24" value="key.txt" style="text;html=1;align=center;verticalAlign=middle;resizable=0;points=[];autosize=1;strokeColor=none;fillColor=none;" parent="1" vertex="1">
          <mxGeometry x="865" y="3256.8" width="60" height="30" as="geometry" />
        </mxCell>
        <mxCell id="ngoskjnf7oLKVKvk5QpH-29" style="edgeStyle=orthogonalEdgeStyle;rounded=0;orthogonalLoop=1;jettySize=auto;html=1;" parent="1" source="ngoskjnf7oLKVKvk5QpH-25" target="ngoskjnf7oLKVKvk5QpH-24" edge="1">
          <mxGeometry relative="1" as="geometry">
            <Array as="points">
              <mxPoint x="980" y="3433" />
              <mxPoint x="980" y="3272" />
            </Array>
          </mxGeometry>
        </mxCell>
        <mxCell id="ngoskjnf7oLKVKvk5QpH-25" value="hse_encrypt_key&lt;br&gt;using the HSE key slot 1" style="rounded=1;whiteSpace=wrap;html=1;fontStyle=1;fillColor=#d5e8d4;strokeColor=#82b366;" parent="1" vertex="1">
          <mxGeometry x="770" y="3410" width="150" height="45" as="geometry" />
        </mxCell>
        <mxCell id="ngoskjnf7oLKVKvk5QpH-30" value="delete plain_key.txt&lt;br&gt;create key.enc" style="text;html=1;align=left;verticalAlign=middle;resizable=0;points=[];autosize=1;strokeColor=none;fillColor=none;fontStyle=1" parent="1" vertex="1">
          <mxGeometry x="990" y="3330.25" width="130" height="40" as="geometry" />
        </mxCell>
        <mxCell id="ngoskjnf7oLKVKvk5QpH-34" style="edgeStyle=none;rounded=0;orthogonalLoop=1;jettySize=auto;html=1;exitX=0.5;exitY=1;exitDx=0;exitDy=0;" parent="1" source="ngoskjnf7oLKVKvk5QpH-32" target="ngoskjnf7oLKVKvk5QpH-33" edge="1">
          <mxGeometry relative="1" as="geometry" />
        </mxCell>
        <mxCell id="ngoskjnf7oLKVKvk5QpH-32" value="Booting" style="rounded=1;whiteSpace=wrap;html=1;fontStyle=1;fillColor=#d5e8d4;strokeColor=#82b366;" parent="1" vertex="1">
          <mxGeometry x="1180" y="3258.8" width="150" height="45" as="geometry" />
        </mxCell>
        <mxCell id="ngoskjnf7oLKVKvk5QpH-36" style="edgeStyle=none;rounded=0;orthogonalLoop=1;jettySize=auto;html=1;exitX=0.5;exitY=1;exitDx=0;exitDy=0;" parent="1" source="ngoskjnf7oLKVKvk5QpH-33" target="ngoskjnf7oLKVKvk5QpH-35" edge="1">
          <mxGeometry relative="1" as="geometry" />
        </mxCell>
        <mxCell id="ngoskjnf7oLKVKvk5QpH-33" value="ATF/uboot" style="rounded=1;whiteSpace=wrap;html=1;fontStyle=1;fillColor=#d5e8d4;strokeColor=#82b366;" parent="1" vertex="1">
          <mxGeometry x="1180" y="3340" width="150" height="45" as="geometry" />
        </mxCell>
        <mxCell id="ngoskjnf7oLKVKvk5QpH-38" style="edgeStyle=none;rounded=0;orthogonalLoop=1;jettySize=auto;html=1;exitX=0.5;exitY=1;exitDx=0;exitDy=0;" parent="1" source="ngoskjnf7oLKVKvk5QpH-35" target="ngoskjnf7oLKVKvk5QpH-37" edge="1">
          <mxGeometry relative="1" as="geometry" />
        </mxCell>
        <mxCell id="ngoskjnf7oLKVKvk5QpH-35" value="uboot" style="rounded=1;whiteSpace=wrap;html=1;fontStyle=1;fillColor=#d5e8d4;strokeColor=#82b366;" parent="1" vertex="1">
          <mxGeometry x="1180" y="3418" width="150" height="45" as="geometry" />
        </mxCell>
        <mxCell id="ngoskjnf7oLKVKvk5QpH-41" style="edgeStyle=none;rounded=0;orthogonalLoop=1;jettySize=auto;html=1;exitX=0.5;exitY=1;exitDx=0;exitDy=0;" parent="1" source="ngoskjnf7oLKVKvk5QpH-37" target="ngoskjnf7oLKVKvk5QpH-39" edge="1">
          <mxGeometry relative="1" as="geometry" />
        </mxCell>
        <mxCell id="ngoskjnf7oLKVKvk5QpH-37" value="Linux RAMDisk" style="rounded=1;whiteSpace=wrap;html=1;fontStyle=1;fillColor=#d5e8d4;strokeColor=#82b366;" parent="1" vertex="1">
          <mxGeometry x="1180" y="3492" width="150" height="45" as="geometry" />
        </mxCell>
        <mxCell id="ngoskjnf7oLKVKvk5QpH-48" style="edgeStyle=none;rounded=0;orthogonalLoop=1;jettySize=auto;html=1;exitX=0.5;exitY=1;exitDx=0;exitDy=0;" parent="1" source="ngoskjnf7oLKVKvk5QpH-39" target="ngoskjnf7oLKVKvk5QpH-46" edge="1">
          <mxGeometry relative="1" as="geometry" />
        </mxCell>
        <mxCell id="ngoskjnf7oLKVKvk5QpH-39" value="Decrypt Key" style="rounded=1;whiteSpace=wrap;html=1;fontStyle=1;fillColor=#d5e8d4;strokeColor=#82b366;" parent="1" vertex="1">
          <mxGeometry x="1180" y="3570" width="150" height="45" as="geometry" />
        </mxCell>
        <mxCell id="ngoskjnf7oLKVKvk5QpH-45" style="edgeStyle=none;rounded=0;orthogonalLoop=1;jettySize=auto;html=1;" parent="1" source="ngoskjnf7oLKVKvk5QpH-43" target="ngoskjnf7oLKVKvk5QpH-39" edge="1">
          <mxGeometry relative="1" as="geometry" />
        </mxCell>
        <mxCell id="ngoskjnf7oLKVKvk5QpH-43" value="" style="sketch=0;pointerEvents=1;shadow=0;dashed=0;html=1;strokeColor=none;fillColor=#005F4B;labelPosition=center;verticalLabelPosition=bottom;verticalAlign=top;align=center;outlineConnect=0;shape=mxgraph.veeam2.sd_card;" parent="1" vertex="1">
          <mxGeometry x="1070" y="3578.5" width="23" height="28.000000000000004" as="geometry" />
        </mxCell>
        <mxCell id="ngoskjnf7oLKVKvk5QpH-44" value="key.enc" style="text;html=1;align=center;verticalAlign=middle;resizable=0;points=[];autosize=1;strokeColor=none;fillColor=none;" parent="1" vertex="1">
          <mxGeometry x="1010" y="3576.5" width="60" height="30" as="geometry" />
        </mxCell>
        <mxCell id="ngoskjnf7oLKVKvk5QpH-46" value="decryt rootfs using key.enc" style="rounded=1;whiteSpace=wrap;html=1;fontStyle=1;fillColor=#d5e8d4;strokeColor=#82b366;" parent="1" vertex="1">
          <mxGeometry x="1180" y="3650" width="150" height="45" as="geometry" />
        </mxCell>
        <mxCell id="sEi9Yv829PW1bHyt4c2J-1" value="Cortex-A53" style="rounded=0;whiteSpace=wrap;html=1;fillColor=#0050ef;fontColor=#ffffff;strokeColor=#001DBC;verticalAlign=bottom;fontSize=14;fontStyle=1" parent="1" vertex="1">
          <mxGeometry x="-870" y="130" width="280" height="180" as="geometry" />
        </mxCell>
        <mxCell id="sEi9Yv829PW1bHyt4c2J-2" value="Cortex-A53" style="rounded=0;whiteSpace=wrap;html=1;fillColor=#0050ef;fontColor=#ffffff;strokeColor=#001DBC;verticalAlign=bottom;fontSize=14;fontStyle=1" parent="1" vertex="1">
          <mxGeometry x="-860" y="140" width="280" height="180" as="geometry" />
        </mxCell>
        <mxCell id="sEi9Yv829PW1bHyt4c2J-3" value="Cortex-A53" style="rounded=0;whiteSpace=wrap;html=1;fillColor=#0050ef;fontColor=#ffffff;strokeColor=#001DBC;verticalAlign=bottom;fontSize=14;fontStyle=1" parent="1" vertex="1">
          <mxGeometry x="-850" y="150" width="280" height="180" as="geometry" />
        </mxCell>
        <mxCell id="sEi9Yv829PW1bHyt4c2J-4" value="Cortex-A53" style="rounded=0;whiteSpace=wrap;html=1;fillColor=#0050ef;fontColor=#ffffff;strokeColor=#001DBC;verticalAlign=bottom;fontSize=14;fontStyle=1" parent="1" vertex="1">
          <mxGeometry x="-840" y="160" width="280" height="180" as="geometry" />
        </mxCell>
        <mxCell id="sEi9Yv829PW1bHyt4c2J-5" value="Arm Cortex-m7" style="rounded=0;whiteSpace=wrap;html=1;fillColor=#008a00;strokeColor=#005700;verticalAlign=bottom;fontSize=14;fontStyle=1;fontColor=#ffffff;" parent="1" vertex="1">
          <mxGeometry x="-534.4" y="130" width="280" height="180" as="geometry" />
        </mxCell>
        <mxCell id="sEi9Yv829PW1bHyt4c2J-6" value="Arm Cortex-m7" style="rounded=0;whiteSpace=wrap;html=1;fillColor=#008a00;strokeColor=#005700;verticalAlign=bottom;fontSize=14;fontStyle=1;fontColor=#ffffff;" parent="1" vertex="1">
          <mxGeometry x="-524.4" y="140" width="280" height="180" as="geometry" />
        </mxCell>
        <mxCell id="sEi9Yv829PW1bHyt4c2J-7" value="Arm Cortex-m7" style="rounded=0;whiteSpace=wrap;html=1;fillColor=#008a00;strokeColor=#005700;verticalAlign=bottom;fontSize=14;fontStyle=1;fontColor=#ffffff;" parent="1" vertex="1">
          <mxGeometry x="-514.4" y="150" width="280" height="180" as="geometry" />
        </mxCell>
        <mxCell id="sEi9Yv829PW1bHyt4c2J-8" value="Arm Cortex-M7" style="rounded=0;whiteSpace=wrap;html=1;fillColor=#008a00;strokeColor=#005700;verticalAlign=bottom;fontSize=14;fontStyle=1;fontColor=#ffffff;" parent="1" vertex="1">
          <mxGeometry x="-504.4" y="160" width="280" height="180" as="geometry" />
        </mxCell>
        <mxCell id="sEi9Yv829PW1bHyt4c2J-10" value="HSE (Hardware Security Engine)" style="rounded=0;whiteSpace=wrap;html=1;fillColor=#76608a;fontColor=#ffffff;strokeColor=#432D57;verticalAlign=bottom;fontSize=14;fontStyle=1" parent="1" vertex="1">
          <mxGeometry x="-904.5" y="400" width="734.5" height="170" as="geometry" />
        </mxCell>
        <mxCell id="sEi9Yv829PW1bHyt4c2J-11" value="Asymmetric Hardware Accelerators" style="rounded=0;whiteSpace=wrap;html=1;fillColor=#a0522d;fontColor=#ffffff;strokeColor=#6D1F00;fontStyle=1" parent="1" vertex="1">
          <mxGeometry x="-870" y="440" width="170" height="90" as="geometry" />
        </mxCell>
        <mxCell id="sEi9Yv829PW1bHyt4c2J-12" value="Symmetric Hardware Accelerators" style="rounded=0;whiteSpace=wrap;html=1;fillColor=#a0522d;fontColor=#ffffff;strokeColor=#6D1F00;fontStyle=1" parent="1" vertex="1">
          <mxGeometry x="-674.4" y="440" width="170" height="90" as="geometry" />
        </mxCell>
        <mxCell id="sEi9Yv829PW1bHyt4c2J-13" value="Secure Memory" style="rounded=0;whiteSpace=wrap;html=1;fillColor=#a0522d;fontColor=#ffffff;strokeColor=#6D1F00;fontStyle=1" parent="1" vertex="1">
          <mxGeometry x="-479.4" y="440" width="149.4" height="90" as="geometry" />
        </mxCell>
        <mxCell id="sEi9Yv829PW1bHyt4c2J-14" value="Random&amp;nbsp;&lt;br&gt;Generators" style="rounded=0;whiteSpace=wrap;html=1;fillColor=#a0522d;fontColor=#ffffff;strokeColor=#6D1F00;fontStyle=1" parent="1" vertex="1">
          <mxGeometry x="-309.3999999999999" y="440" width="109.4" height="90" as="geometry" />
        </mxCell>
        <mxCell id="sEi9Yv829PW1bHyt4c2J-15" value="Linux (OS)" style="rounded=0;whiteSpace=wrap;html=1;fillColor=#a0522d;fontColor=#ffffff;strokeColor=#6D1F00;fontStyle=1" parent="1" vertex="1">
          <mxGeometry x="-821.9" y="220" width="243.8" height="90" as="geometry" />
        </mxCell>
        <mxCell id="sEi9Yv829PW1bHyt4c2J-16" value="ATF/U-BOOT" style="rounded=0;whiteSpace=wrap;html=1;fillColor=#a0522d;fontColor=#ffffff;strokeColor=#6D1F00;fontStyle=1" parent="1" vertex="1">
          <mxGeometry x="-821.9" y="170" width="243.8" height="40" as="geometry" />
        </mxCell>
        <mxCell id="sEi9Yv829PW1bHyt4c2J-17" value="AUTOSAR&lt;br&gt;(RTOS)" style="rounded=0;whiteSpace=wrap;html=1;fillColor=#a0522d;fontColor=#ffffff;strokeColor=#6D1F00;fontStyle=1" parent="1" vertex="1">
          <mxGeometry x="-490" y="190" width="240" height="110" as="geometry" />
        </mxCell>
        <mxCell id="sEi9Yv829PW1bHyt4c2J-22" style="edgeStyle=orthogonalEdgeStyle;rounded=0;orthogonalLoop=1;jettySize=auto;html=1;exitX=0.5;exitY=1;exitDx=0;exitDy=0;entryX=0.247;entryY=-0.068;entryDx=0;entryDy=0;entryPerimeter=0;startArrow=classic;startFill=1;" parent="1" source="sEi9Yv829PW1bHyt4c2J-19" target="sEi9Yv829PW1bHyt4c2J-21" edge="1">
          <mxGeometry relative="1" as="geometry" />
        </mxCell>
        <mxCell id="sEi9Yv829PW1bHyt4c2J-19" value="Cortex-A53" style="rounded=0;whiteSpace=wrap;html=1;fillColor=#0050ef;fontColor=#ffffff;strokeColor=#001DBC;verticalAlign=bottom;fontSize=14;fontStyle=1" parent="1" vertex="1">
          <mxGeometry x="-1056" y="780" width="280" height="180" as="geometry" />
        </mxCell>
        <mxCell id="sEi9Yv829PW1bHyt4c2J-20" value="Linux (OS)&lt;br&gt;Running dm-crypt or PKCS11" style="rounded=0;whiteSpace=wrap;html=1;fillColor=#a0522d;fontColor=#ffffff;strokeColor=#6D1F00;fontStyle=1" parent="1" vertex="1">
          <mxGeometry x="-1037.9" y="825" width="243.8" height="90" as="geometry" />
        </mxCell>
        <mxCell id="sEi9Yv829PW1bHyt4c2J-21" value="HSE (Hardware Security Engine)" style="rounded=0;whiteSpace=wrap;html=1;fillColor=#76608a;fontColor=#ffffff;strokeColor=#432D57;verticalAlign=bottom;fontSize=14;fontStyle=1" parent="1" vertex="1">
          <mxGeometry x="-1059.4" y="1080" width="580" height="44" as="geometry" />
        </mxCell>
        <mxCell id="sEi9Yv829PW1bHyt4c2J-23" value="Call HSE" style="text;html=1;align=center;verticalAlign=middle;resizable=0;points=[];autosize=1;strokeColor=none;fillColor=none;fontStyle=1" parent="1" vertex="1">
          <mxGeometry x="-920.4" y="1015" width="70" height="30" as="geometry" />
        </mxCell>
        <mxCell id="sEi9Yv829PW1bHyt4c2J-25" value="Cortex-M7" style="rounded=0;whiteSpace=wrap;html=1;fillColor=#0050ef;fontColor=#ffffff;strokeColor=#001DBC;verticalAlign=bottom;fontSize=14;fontStyle=1" parent="1" vertex="1">
          <mxGeometry x="-759.4" y="780" width="280" height="180" as="geometry" />
        </mxCell>
        <mxCell id="sEi9Yv829PW1bHyt4c2J-26" value="AUTOSAR&lt;br&gt;SecOC etc." style="rounded=0;whiteSpace=wrap;html=1;fillColor=#a0522d;fontColor=#ffffff;strokeColor=#6D1F00;fontStyle=1" parent="1" vertex="1">
          <mxGeometry x="-741.3" y="825" width="243.8" height="90" as="geometry" />
        </mxCell>
        <mxCell id="sEi9Yv829PW1bHyt4c2J-27" style="edgeStyle=orthogonalEdgeStyle;rounded=0;orthogonalLoop=1;jettySize=auto;html=1;exitX=0.5;exitY=1;exitDx=0;exitDy=0;startArrow=classic;startFill=1;entryX=0.76;entryY=0.021;entryDx=0;entryDy=0;entryPerimeter=0;" parent="1" target="sEi9Yv829PW1bHyt4c2J-21" edge="1">
          <mxGeometry relative="1" as="geometry">
            <mxPoint x="-619.6" y="963" as="sourcePoint" />
            <mxPoint x="-620" y="1070" as="targetPoint" />
          </mxGeometry>
        </mxCell>
        <mxCell id="sEi9Yv829PW1bHyt4c2J-28" value="Call HSE" style="text;html=1;align=center;verticalAlign=middle;resizable=0;points=[];autosize=1;strokeColor=none;fillColor=none;fontStyle=1" parent="1" vertex="1">
          <mxGeometry x="-616" y="1009" width="70" height="30" as="geometry" />
        </mxCell>
        <mxCell id="AKbw9LmyPq3Rt259pDQ4-1" value="" style="rounded=0;whiteSpace=wrap;html=1;fontStyle=1;fillColor=#0050ef;fontColor=#ffffff;strokeColor=#001DBC;" parent="1" vertex="1">
          <mxGeometry x="-354.4" y="3579" width="114.4" height="201" as="geometry" />
        </mxCell>
        <mxCell id="AKbw9LmyPq3Rt259pDQ4-3" value="IVT" style="rounded=0;whiteSpace=wrap;html=1;fillColor=#e3c800;fontColor=#000000;strokeColor=#B09500;" parent="1" vertex="1">
          <mxGeometry x="-354.4" y="3579" width="114.4" height="27" as="geometry" />
        </mxCell>
        <mxCell id="AKbw9LmyPq3Rt259pDQ4-4" value="FIP.s32" style="rounded=0;whiteSpace=wrap;html=1;fillColor=#fa6800;fontColor=#000000;strokeColor=#C73500;" parent="1" vertex="1">
          <mxGeometry x="-354.4" y="3606" width="114.4" height="30" as="geometry" />
        </mxCell>
        <mxCell id="AKbw9LmyPq3Rt259pDQ4-5" value="signed_fip.bin" style="rounded=0;whiteSpace=wrap;html=1;fillColor=#60a917;strokeColor=#2D7600;fontColor=#ffffff;" parent="1" vertex="1">
          <mxGeometry x="-354.4" y="3636" width="114.4" height="130" as="geometry" />
        </mxCell>
        <mxCell id="AKbw9LmyPq3Rt259pDQ4-8" value="" style="shape=curlyBracket;whiteSpace=wrap;html=1;rounded=1;flipH=1;labelPosition=right;verticalLabelPosition=middle;align=left;verticalAlign=middle;" parent="1" vertex="1">
          <mxGeometry x="-234.4" y="3580" width="20" height="186" as="geometry" />
        </mxCell>
        <mxCell id="AKbw9LmyPq3Rt259pDQ4-9" value="no file system" style="text;html=1;align=center;verticalAlign=middle;resizable=0;points=[];autosize=1;strokeColor=none;fillColor=none;fontStyle=1;labelBorderColor=default;" parent="1" vertex="1">
          <mxGeometry x="-220" y="3657.5" width="100" height="30" as="geometry" />
        </mxCell>
        <mxCell id="AKbw9LmyPq3Rt259pDQ4-10" value="" style="rounded=0;whiteSpace=wrap;html=1;fontStyle=1;fillColor=#6a00ff;fontColor=#ffffff;strokeColor=#3700CC;" parent="1" vertex="1">
          <mxGeometry x="-354.4" y="3780" width="114.4" height="100" as="geometry" />
        </mxCell>
        <mxCell id="AKbw9LmyPq3Rt259pDQ4-11" value="" style="rounded=0;whiteSpace=wrap;html=1;fontStyle=1;fillColor=#e3c800;fontColor=#000000;strokeColor=#B09500;" parent="1" vertex="1">
          <mxGeometry x="-354.4" y="3880" width="114.4" height="90" as="geometry" />
        </mxCell>
        <mxCell id="AKbw9LmyPq3Rt259pDQ4-12" value="" style="shape=tape;whiteSpace=wrap;html=1;" parent="1" vertex="1">
          <mxGeometry x="-354.4" y="3850" width="114.4" height="20" as="geometry" />
        </mxCell>
        <mxCell id="AKbw9LmyPq3Rt259pDQ4-13" value="" style="shape=curlyBracket;whiteSpace=wrap;html=1;rounded=1;flipH=1;labelPosition=right;verticalLabelPosition=middle;align=left;verticalAlign=middle;" parent="1" vertex="1">
          <mxGeometry x="-234.4" y="3780" width="20" height="100" as="geometry" />
        </mxCell>
        <mxCell id="AKbw9LmyPq3Rt259pDQ4-14" value="FAT32" style="text;html=1;align=center;verticalAlign=middle;resizable=0;points=[];autosize=1;strokeColor=none;fillColor=none;fontStyle=1;labelBorderColor=default;" parent="1" vertex="1">
          <mxGeometry x="-220" y="3815" width="60" height="30" as="geometry" />
        </mxCell>
        <mxCell id="AKbw9LmyPq3Rt259pDQ4-15" value="" style="shape=tape;whiteSpace=wrap;html=1;" parent="1" vertex="1">
          <mxGeometry x="-354.4" y="3940" width="114.4" height="20" as="geometry" />
        </mxCell>
        <mxCell id="AKbw9LmyPq3Rt259pDQ4-16" value="" style="shape=curlyBracket;whiteSpace=wrap;html=1;rounded=1;flipH=1;labelPosition=right;verticalLabelPosition=middle;align=left;verticalAlign=middle;" parent="1" vertex="1">
          <mxGeometry x="-234.4" y="3880" width="20" height="90" as="geometry" />
        </mxCell>
        <mxCell id="AKbw9LmyPq3Rt259pDQ4-17" value="EXT4" style="text;html=1;align=center;verticalAlign=middle;resizable=0;points=[];autosize=1;strokeColor=none;fillColor=none;fontStyle=1;labelBorderColor=default;" parent="1" vertex="1">
          <mxGeometry x="-215" y="3910" width="50" height="30" as="geometry" />
        </mxCell>
        <mxCell id="AKbw9LmyPq3Rt259pDQ4-19" value="public key" style="text;html=1;align=center;verticalAlign=middle;resizable=0;points=[];autosize=1;strokeColor=none;fillColor=none;fontStyle=1" parent="1" vertex="1">
          <mxGeometry x="-354.4" y="3785" width="80" height="30" as="geometry" />
        </mxCell>
        <mxCell id="AKbw9LmyPq3Rt259pDQ4-20" value="sec-boot.itb" style="text;html=1;align=center;verticalAlign=middle;resizable=0;points=[];autosize=1;strokeColor=none;fillColor=none;fontStyle=1" parent="1" vertex="1">
          <mxGeometry x="-354.4" y="3802" width="90" height="30" as="geometry" />
        </mxCell>
        <mxCell id="AKbw9LmyPq3Rt259pDQ4-22" value="rootfs" style="text;html=1;align=center;verticalAlign=middle;resizable=0;points=[];autosize=1;strokeColor=none;fillColor=none;fontStyle=1" parent="1" vertex="1">
          <mxGeometry x="-350" y="3890" width="60" height="30" as="geometry" />
        </mxCell>
        <mxCell id="AKbw9LmyPq3Rt259pDQ4-23" value="SD CARD" style="text;html=1;align=center;verticalAlign=middle;resizable=0;points=[];autosize=1;strokeColor=none;fillColor=none;fontStyle=1" parent="1" vertex="1">
          <mxGeometry x="-340" y="3546.5" width="80" height="30" as="geometry" />
        </mxCell>
        <mxCell id="AKbw9LmyPq3Rt259pDQ4-25" value="Some Changes" style="text;html=1;align=center;verticalAlign=middle;resizable=0;points=[];autosize=1;strokeColor=none;fillColor=none;fontStyle=1" parent="1" vertex="1">
          <mxGeometry x="-40" y="3150" width="110" height="30" as="geometry" />
        </mxCell>
        <mxCell id="sAdrH8txR1JdPMxLCLVV-1" value="" style="rounded=0;whiteSpace=wrap;html=1;fontStyle=1;" parent="1" vertex="1">
          <mxGeometry x="25.6" y="3609" width="114.4" height="461" as="geometry" />
        </mxCell>
        <mxCell id="sAdrH8txR1JdPMxLCLVV-3" value="FIP.s32" style="rounded=0;whiteSpace=wrap;html=1;fillColor=#fa6800;fontColor=#000000;strokeColor=#000000;verticalAlign=top;fontStyle=1" parent="1" vertex="1">
          <mxGeometry x="25.8" y="3657.5" width="114.4" height="54" as="geometry" />
        </mxCell>
        <mxCell id="sAdrH8txR1JdPMxLCLVV-4" value="fip.bin" style="rounded=0;whiteSpace=wrap;html=1;fillColor=#60a917;strokeColor=#000000;fontColor=default;fontStyle=1;labelBackgroundColor=none;" parent="1" vertex="1">
          <mxGeometry x="25.8" y="3741" width="114.4" height="40" as="geometry" />
        </mxCell>
        <mxCell id="sAdrH8txR1JdPMxLCLVV-7" value="" style="rounded=0;whiteSpace=wrap;html=1;fontStyle=1;fillColor=#6a00ff;fontColor=#ffffff;strokeColor=#3700CC;" parent="1" vertex="1">
          <mxGeometry x="25.600000000000023" y="3880" width="114.4" height="100" as="geometry" />
        </mxCell>
        <mxCell id="sAdrH8txR1JdPMxLCLVV-8" value="" style="rounded=0;whiteSpace=wrap;html=1;fontStyle=1;fillColor=#e3c800;fontColor=#000000;strokeColor=#B09500;" parent="1" vertex="1">
          <mxGeometry x="25.600000000000023" y="3980" width="114.4" height="90" as="geometry" />
        </mxCell>
        <mxCell id="sAdrH8txR1JdPMxLCLVV-9" value="" style="shape=tape;whiteSpace=wrap;html=1;" parent="1" vertex="1">
          <mxGeometry x="25.600000000000023" y="3950" width="114.4" height="20" as="geometry" />
        </mxCell>
        <mxCell id="sAdrH8txR1JdPMxLCLVV-10" value="" style="shape=curlyBracket;whiteSpace=wrap;html=1;rounded=1;flipH=1;labelPosition=right;verticalLabelPosition=middle;align=left;verticalAlign=middle;" parent="1" vertex="1">
          <mxGeometry x="145.6" y="3880" width="20" height="100" as="geometry" />
        </mxCell>
        <mxCell id="sAdrH8txR1JdPMxLCLVV-11" value="FAT32" style="text;html=1;align=center;verticalAlign=middle;resizable=0;points=[];autosize=1;strokeColor=none;fillColor=none;fontStyle=1;labelBorderColor=default;" parent="1" vertex="1">
          <mxGeometry x="160" y="3915" width="60" height="30" as="geometry" />
        </mxCell>
        <mxCell id="sAdrH8txR1JdPMxLCLVV-12" value="" style="shape=tape;whiteSpace=wrap;html=1;" parent="1" vertex="1">
          <mxGeometry x="25.600000000000023" y="4040" width="114.4" height="20" as="geometry" />
        </mxCell>
        <mxCell id="sAdrH8txR1JdPMxLCLVV-13" value="" style="shape=curlyBracket;whiteSpace=wrap;html=1;rounded=1;flipH=1;labelPosition=right;verticalLabelPosition=middle;align=left;verticalAlign=middle;" parent="1" vertex="1">
          <mxGeometry x="145.6" y="3980" width="20" height="90" as="geometry" />
        </mxCell>
        <mxCell id="sAdrH8txR1JdPMxLCLVV-14" value="EXT4" style="text;html=1;align=center;verticalAlign=middle;resizable=0;points=[];autosize=1;strokeColor=none;fillColor=none;fontStyle=1;labelBorderColor=default;" parent="1" vertex="1">
          <mxGeometry x="165" y="4010" width="50" height="30" as="geometry" />
        </mxCell>
        <mxCell id="sAdrH8txR1JdPMxLCLVV-15" value="public key" style="text;html=1;align=center;verticalAlign=middle;resizable=0;points=[];autosize=1;strokeColor=none;fillColor=none;fontStyle=1" parent="1" vertex="1">
          <mxGeometry x="25.600000000000023" y="3885" width="80" height="30" as="geometry" />
        </mxCell>
        <mxCell id="sAdrH8txR1JdPMxLCLVV-16" value="sec-boot.itb" style="text;html=1;align=center;verticalAlign=middle;resizable=0;points=[];autosize=1;strokeColor=none;fillColor=none;fontStyle=1" parent="1" vertex="1">
          <mxGeometry x="25.600000000000023" y="3902" width="90" height="30" as="geometry" />
        </mxCell>
        <mxCell id="sAdrH8txR1JdPMxLCLVV-17" value="rootfs" style="text;html=1;align=center;verticalAlign=middle;resizable=0;points=[];autosize=1;strokeColor=none;fillColor=none;fontStyle=1" parent="1" vertex="1">
          <mxGeometry x="30" y="3990" width="60" height="30" as="geometry" />
        </mxCell>
        <mxCell id="sAdrH8txR1JdPMxLCLVV-18" value="S32G Rev2.0" style="text;html=1;align=center;verticalAlign=middle;resizable=0;points=[];autosize=1;strokeColor=none;fillColor=none;fontStyle=1" parent="1" vertex="1">
          <mxGeometry x="30" y="3576.5" width="100" height="30" as="geometry" />
        </mxCell>
        <mxCell id="sAdrH8txR1JdPMxLCLVV-20" value="Reserved" style="rounded=0;whiteSpace=wrap;html=1;fillColor=#e51400;strokeColor=#000000;fontColor=#ffffff;" parent="1" vertex="1">
          <mxGeometry x="25.8" y="3608.5" width="114.4" height="21" as="geometry" />
        </mxCell>
        <mxCell id="sAdrH8txR1JdPMxLCLVV-2" value="IVT" style="rounded=0;whiteSpace=wrap;html=1;fillColor=#e3c800;fontColor=default;strokeColor=none;fontStyle=1;" parent="1" vertex="1">
          <mxGeometry x="25.8" y="3685" width="114.4" height="18" as="geometry" />
        </mxCell>
        <mxCell id="sAdrH8txR1JdPMxLCLVV-21" value="0x200" style="text;html=1;align=center;verticalAlign=middle;resizable=0;points=[];autosize=1;strokeColor=none;fillColor=none;" parent="1" vertex="1">
          <mxGeometry x="129" y="3642" width="60" height="30" as="geometry" />
        </mxCell>
        <mxCell id="sAdrH8txR1JdPMxLCLVV-22" value="0x5E440" style="text;html=1;align=center;verticalAlign=middle;resizable=0;points=[];autosize=1;strokeColor=none;fillColor=none;" parent="1" vertex="1">
          <mxGeometry x="131" y="3728" width="70" height="30" as="geometry" />
        </mxCell>
        <mxCell id="sAdrH8txR1JdPMxLCLVV-23" value="0x1E0000" style="text;html=1;align=center;verticalAlign=middle;resizable=0;points=[];autosize=1;strokeColor=none;fillColor=none;" parent="1" vertex="1">
          <mxGeometry x="130" y="3797" width="80" height="30" as="geometry" />
        </mxCell>
        <mxCell id="sAdrH8txR1JdPMxLCLVV-24" value="uboot env" style="rounded=0;whiteSpace=wrap;html=1;fillColor=#e3c800;fontColor=#000000;strokeColor=#000000;fontStyle=1" parent="1" vertex="1">
          <mxGeometry x="25.599999999999998" y="3811" width="114.4" height="21" as="geometry" />
        </mxCell>
        <mxCell id="sAdrH8txR1JdPMxLCLVV-27" value="0" style="text;html=1;align=center;verticalAlign=middle;resizable=0;points=[];autosize=1;strokeColor=none;fillColor=none;" parent="1" vertex="1">
          <mxGeometry x="130.6" y="3594" width="30" height="30" as="geometry" />
        </mxCell>
        <mxCell id="sAdrH8txR1JdPMxLCLVV-50" value="" style="rounded=0;whiteSpace=wrap;html=1;fontStyle=1;" parent="1" vertex="1">
          <mxGeometry x="374.6" y="3607.25" width="114.4" height="461" as="geometry" />
        </mxCell>
        <mxCell id="sAdrH8txR1JdPMxLCLVV-51" value="FIP.s32" style="rounded=0;whiteSpace=wrap;html=1;fillColor=#fa6800;fontColor=#000000;strokeColor=#000000;verticalAlign=top;fontStyle=1" parent="1" vertex="1">
          <mxGeometry x="374.8" y="3655.75" width="114.4" height="54" as="geometry" />
        </mxCell>
        <mxCell id="sAdrH8txR1JdPMxLCLVV-52" value="fip.bin" style="rounded=0;whiteSpace=wrap;html=1;fillColor=#60a917;strokeColor=#000000;fontColor=default;fontStyle=1;labelBackgroundColor=none;" parent="1" vertex="1">
          <mxGeometry x="374.8" y="3739.25" width="114.4" height="40" as="geometry" />
        </mxCell>
        <mxCell id="sAdrH8txR1JdPMxLCLVV-53" value="" style="rounded=0;whiteSpace=wrap;html=1;fontStyle=1;fillColor=#6a00ff;fontColor=#ffffff;strokeColor=#3700CC;" parent="1" vertex="1">
          <mxGeometry x="374.6" y="3878.25" width="114.4" height="100" as="geometry" />
        </mxCell>
        <mxCell id="sAdrH8txR1JdPMxLCLVV-54" value="" style="rounded=0;whiteSpace=wrap;html=1;fontStyle=1;fillColor=#e3c800;fontColor=#000000;strokeColor=#B09500;" parent="1" vertex="1">
          <mxGeometry x="374.6" y="3978.25" width="114.4" height="90" as="geometry" />
        </mxCell>
        <mxCell id="sAdrH8txR1JdPMxLCLVV-55" value="" style="shape=tape;whiteSpace=wrap;html=1;" parent="1" vertex="1">
          <mxGeometry x="374.6" y="3948.25" width="114.4" height="20" as="geometry" />
        </mxCell>
        <mxCell id="sAdrH8txR1JdPMxLCLVV-56" value="" style="shape=curlyBracket;whiteSpace=wrap;html=1;rounded=1;flipH=1;labelPosition=right;verticalLabelPosition=middle;align=left;verticalAlign=middle;" parent="1" vertex="1">
          <mxGeometry x="494.6" y="3878.25" width="20" height="100" as="geometry" />
        </mxCell>
        <mxCell id="sAdrH8txR1JdPMxLCLVV-57" value="FAT32" style="text;html=1;align=center;verticalAlign=middle;resizable=0;points=[];autosize=1;strokeColor=none;fillColor=none;fontStyle=1;labelBorderColor=default;" parent="1" vertex="1">
          <mxGeometry x="509" y="3913.25" width="60" height="30" as="geometry" />
        </mxCell>
        <mxCell id="sAdrH8txR1JdPMxLCLVV-58" value="" style="shape=tape;whiteSpace=wrap;html=1;" parent="1" vertex="1">
          <mxGeometry x="374.6" y="4038.25" width="114.4" height="20" as="geometry" />
        </mxCell>
        <mxCell id="sAdrH8txR1JdPMxLCLVV-59" value="" style="shape=curlyBracket;whiteSpace=wrap;html=1;rounded=1;flipH=1;labelPosition=right;verticalLabelPosition=middle;align=left;verticalAlign=middle;" parent="1" vertex="1">
          <mxGeometry x="494.6" y="3978.25" width="20" height="90" as="geometry" />
        </mxCell>
        <mxCell id="sAdrH8txR1JdPMxLCLVV-60" value="EXT4" style="text;html=1;align=center;verticalAlign=middle;resizable=0;points=[];autosize=1;strokeColor=none;fillColor=none;fontStyle=1;labelBorderColor=default;" parent="1" vertex="1">
          <mxGeometry x="514" y="4008.25" width="50" height="30" as="geometry" />
        </mxCell>
        <mxCell id="sAdrH8txR1JdPMxLCLVV-61" value="public key" style="text;html=1;align=center;verticalAlign=middle;resizable=0;points=[];autosize=1;strokeColor=none;fillColor=none;fontStyle=1" parent="1" vertex="1">
          <mxGeometry x="374.6" y="3883.25" width="80" height="30" as="geometry" />
        </mxCell>
        <mxCell id="sAdrH8txR1JdPMxLCLVV-62" value="sec-boot.itb" style="text;html=1;align=center;verticalAlign=middle;resizable=0;points=[];autosize=1;strokeColor=none;fillColor=none;fontStyle=1" parent="1" vertex="1">
          <mxGeometry x="374.6" y="3900.25" width="90" height="30" as="geometry" />
        </mxCell>
        <mxCell id="sAdrH8txR1JdPMxLCLVV-63" value="rootfs" style="text;html=1;align=center;verticalAlign=middle;resizable=0;points=[];autosize=1;strokeColor=none;fillColor=none;fontStyle=1" parent="1" vertex="1">
          <mxGeometry x="379" y="3988.25" width="60" height="30" as="geometry" />
        </mxCell>
        <mxCell id="sAdrH8txR1JdPMxLCLVV-64" value="S32G Rev2.0" style="text;html=1;align=center;verticalAlign=middle;resizable=0;points=[];autosize=1;strokeColor=none;fillColor=none;fontStyle=1" parent="1" vertex="1">
          <mxGeometry x="379" y="3574.75" width="100" height="30" as="geometry" />
        </mxCell>
        <mxCell id="sAdrH8txR1JdPMxLCLVV-73" style="edgeStyle=orthogonalEdgeStyle;rounded=0;orthogonalLoop=1;jettySize=auto;html=1;exitX=0;exitY=0.75;exitDx=0;exitDy=0;entryX=0;entryY=0.5;entryDx=0;entryDy=0;curved=1;" parent="1" source="sAdrH8txR1JdPMxLCLVV-66" target="sAdrH8txR1JdPMxLCLVV-72" edge="1">
          <mxGeometry relative="1" as="geometry">
            <Array as="points">
              <mxPoint x="350" y="3696.75" />
              <mxPoint x="350" y="3616.75" />
            </Array>
          </mxGeometry>
        </mxCell>
        <mxCell id="sAdrH8txR1JdPMxLCLVV-66" value="IVT" style="rounded=0;whiteSpace=wrap;html=1;fillColor=#e3c800;fontColor=default;strokeColor=none;fontStyle=1;" parent="1" vertex="1">
          <mxGeometry x="374.8" y="3683.25" width="114.4" height="18" as="geometry" />
        </mxCell>
        <mxCell id="sAdrH8txR1JdPMxLCLVV-67" value="0x200" style="text;html=1;align=center;verticalAlign=middle;resizable=0;points=[];autosize=1;strokeColor=none;fillColor=none;" parent="1" vertex="1">
          <mxGeometry x="478" y="3640.25" width="60" height="30" as="geometry" />
        </mxCell>
        <mxCell id="sAdrH8txR1JdPMxLCLVV-68" value="0x5E440" style="text;html=1;align=center;verticalAlign=middle;resizable=0;points=[];autosize=1;strokeColor=none;fillColor=none;" parent="1" vertex="1">
          <mxGeometry x="480" y="3726.25" width="70" height="30" as="geometry" />
        </mxCell>
        <mxCell id="sAdrH8txR1JdPMxLCLVV-69" value="0x1E0000" style="text;html=1;align=center;verticalAlign=middle;resizable=0;points=[];autosize=1;strokeColor=none;fillColor=none;" parent="1" vertex="1">
          <mxGeometry x="479" y="3795.25" width="80" height="30" as="geometry" />
        </mxCell>
        <mxCell id="sAdrH8txR1JdPMxLCLVV-70" value="uboot env" style="rounded=0;whiteSpace=wrap;html=1;fillColor=#e3c800;fontColor=#000000;strokeColor=#000000;fontStyle=1" parent="1" vertex="1">
          <mxGeometry x="374.6" y="3809.25" width="114.4" height="21" as="geometry" />
        </mxCell>
        <mxCell id="sAdrH8txR1JdPMxLCLVV-71" value="0" style="text;html=1;align=center;verticalAlign=middle;resizable=0;points=[];autosize=1;strokeColor=none;fillColor=none;" parent="1" vertex="1">
          <mxGeometry x="479.6" y="3592.25" width="30" height="30" as="geometry" />
        </mxCell>
        <mxCell id="sAdrH8txR1JdPMxLCLVV-72" value="Secure IVT" style="rounded=0;whiteSpace=wrap;html=1;fillColor=#e6d0de;strokeColor=#996185;fontStyle=1;gradientColor=#d5739d;" parent="1" vertex="1">
          <mxGeometry x="374.6" y="3607.25" width="114.4" height="18" as="geometry" />
        </mxCell>
        <mxCell id="sAdrH8txR1JdPMxLCLVV-74" value="Provisioned" style="text;html=1;align=center;verticalAlign=middle;resizable=0;points=[];autosize=1;strokeColor=none;fillColor=none;" parent="1" vertex="1">
          <mxGeometry x="290" y="3687.25" width="90" height="30" as="geometry" />
        </mxCell>
        <mxCell id="sAdrH8txR1JdPMxLCLVV-75" value="" style="shape=flexArrow;endArrow=classic;html=1;rounded=0;fillColor=#f8cecc;gradientColor=#ea6b66;strokeColor=#b85450;" parent="1" edge="1">
          <mxGeometry width="50" height="50" relative="1" as="geometry">
            <mxPoint x="248" y="3859.69" as="sourcePoint" />
            <mxPoint x="308" y="3859.69" as="targetPoint" />
          </mxGeometry>
        </mxCell>
        <mxCell id="sAdrH8txR1JdPMxLCLVV-76" value="hse_secboot_enable" style="text;html=1;align=center;verticalAlign=middle;resizable=0;points=[];autosize=1;strokeColor=none;fillColor=none;fontStyle=1" parent="1" vertex="1">
          <mxGeometry x="204" y="3820" width="140" height="30" as="geometry" />
        </mxCell>
        <mxCell id="sAdrH8txR1JdPMxLCLVV-91" value="Actor" style="shape=umlActor;verticalLabelPosition=bottom;verticalAlign=top;html=1;outlineConnect=0;" parent="1" vertex="1">
          <mxGeometry x="810" y="4050" width="30" height="60" as="geometry" />
        </mxCell>
        <mxCell id="sAdrH8txR1JdPMxLCLVV-99" style="edgeStyle=orthogonalEdgeStyle;rounded=0;orthogonalLoop=1;jettySize=auto;html=1;exitX=0.5;exitY=1;exitDx=0;exitDy=0;" parent="1" source="sAdrH8txR1JdPMxLCLVV-92" target="sAdrH8txR1JdPMxLCLVV-96" edge="1">
          <mxGeometry relative="1" as="geometry" />
        </mxCell>
        <mxCell id="sAdrH8txR1JdPMxLCLVV-92" value="XCU" style="rounded=0;whiteSpace=wrap;html=1;" parent="1" vertex="1">
          <mxGeometry x="1121" y="4060" width="120" height="60" as="geometry" />
        </mxCell>
        <mxCell id="sAdrH8txR1JdPMxLCLVV-95" style="edgeStyle=orthogonalEdgeStyle;rounded=0;orthogonalLoop=1;jettySize=auto;html=1;" parent="1" source="sAdrH8txR1JdPMxLCLVV-94" target="sAdrH8txR1JdPMxLCLVV-92" edge="1">
          <mxGeometry relative="1" as="geometry" />
        </mxCell>
        <mxCell id="sAdrH8txR1JdPMxLCLVV-110" style="edgeStyle=none;rounded=0;orthogonalLoop=1;jettySize=auto;html=1;exitX=1;exitY=0.5;exitDx=0;exitDy=0;exitPerimeter=0;entryX=0;entryY=0.5;entryDx=0;entryDy=0;" parent="1" source="sAdrH8txR1JdPMxLCLVV-94" target="sAdrH8txR1JdPMxLCLVV-105" edge="1">
          <mxGeometry relative="1" as="geometry" />
        </mxCell>
        <mxCell id="sAdrH8txR1JdPMxLCLVV-94" value="" style="fontColor=#0066CC;verticalAlign=top;verticalLabelPosition=bottom;labelPosition=center;align=center;html=1;outlineConnect=0;fillColor=#CCCCCC;strokeColor=#6881B3;gradientColor=none;gradientDirection=north;strokeWidth=2;shape=mxgraph.networks.virtual_pc;" parent="1" vertex="1">
          <mxGeometry x="850" y="4047.5" width="115" height="85" as="geometry" />
        </mxCell>
        <mxCell id="sAdrH8txR1JdPMxLCLVV-96" value="S32G" style="rounded=0;whiteSpace=wrap;html=1;" parent="1" vertex="1">
          <mxGeometry x="1121" y="4180" width="120" height="60" as="geometry" />
        </mxCell>
        <mxCell id="sAdrH8txR1JdPMxLCLVV-100" value="SMP Client" style="text;html=1;align=center;verticalAlign=middle;resizable=0;points=[];autosize=1;strokeColor=none;fillColor=none;" parent="1" vertex="1">
          <mxGeometry x="867.5" y="4017.5" width="80" height="30" as="geometry" />
        </mxCell>
        <mxCell id="sAdrH8txR1JdPMxLCLVV-101" value="Firmware" style="text;html=1;align=center;verticalAlign=middle;resizable=0;points=[];autosize=1;strokeColor=none;fillColor=none;" parent="1" vertex="1">
          <mxGeometry x="1005" y="4065" width="70" height="30" as="geometry" />
        </mxCell>
        <mxCell id="sAdrH8txR1JdPMxLCLVV-102" value="S32G" style="rounded=0;whiteSpace=wrap;html=1;" parent="1" vertex="1">
          <mxGeometry x="1131" y="4190" width="120" height="60" as="geometry" />
        </mxCell>
        <mxCell id="sAdrH8txR1JdPMxLCLVV-103" value="S32G" style="rounded=0;whiteSpace=wrap;html=1;" parent="1" vertex="1">
          <mxGeometry x="1141" y="4200" width="120" height="60" as="geometry" />
        </mxCell>
        <mxCell id="sAdrH8txR1JdPMxLCLVV-104" value="S32G" style="rounded=0;whiteSpace=wrap;html=1;" parent="1" vertex="1">
          <mxGeometry x="1151" y="4210" width="120" height="60" as="geometry" />
        </mxCell>
        <mxCell id="sAdrH8txR1JdPMxLCLVV-105" value="XCU" style="rounded=0;whiteSpace=wrap;html=1;" parent="1" vertex="1">
          <mxGeometry x="1131" y="4070" width="120" height="60" as="geometry" />
        </mxCell>
        <mxCell id="sAdrH8txR1JdPMxLCLVV-106" value="XCU" style="rounded=0;whiteSpace=wrap;html=1;" parent="1" vertex="1">
          <mxGeometry x="1141" y="4080" width="120" height="60" as="geometry" />
        </mxCell>
        <mxCell id="sAdrH8txR1JdPMxLCLVV-108" style="edgeStyle=orthogonalEdgeStyle;rounded=0;orthogonalLoop=1;jettySize=auto;html=1;exitX=0.5;exitY=1;exitDx=0;exitDy=0;" parent="1" source="sAdrH8txR1JdPMxLCLVV-107" target="sAdrH8txR1JdPMxLCLVV-104" edge="1">
          <mxGeometry relative="1" as="geometry" />
        </mxCell>
        <mxCell id="sAdrH8txR1JdPMxLCLVV-107" value="XCU" style="rounded=0;whiteSpace=wrap;html=1;" parent="1" vertex="1">
          <mxGeometry x="1151" y="4095" width="120" height="60" as="geometry" />
        </mxCell>
        <mxCell id="sAdrH8txR1JdPMxLCLVV-111" style="edgeStyle=none;rounded=0;orthogonalLoop=1;jettySize=auto;html=1;exitX=1;exitY=0.5;exitDx=0;exitDy=0;exitPerimeter=0;entryX=0;entryY=0.5;entryDx=0;entryDy=0;" parent="1" source="sAdrH8txR1JdPMxLCLVV-94" target="sAdrH8txR1JdPMxLCLVV-106" edge="1">
          <mxGeometry relative="1" as="geometry">
            <mxPoint x="975" y="4100" as="sourcePoint" />
            <mxPoint x="1141" y="4110" as="targetPoint" />
          </mxGeometry>
        </mxCell>
        <mxCell id="sAdrH8txR1JdPMxLCLVV-112" style="edgeStyle=none;rounded=0;orthogonalLoop=1;jettySize=auto;html=1;exitX=1;exitY=0.5;exitDx=0;exitDy=0;exitPerimeter=0;entryX=0;entryY=0.5;entryDx=0;entryDy=0;" parent="1" target="sAdrH8txR1JdPMxLCLVV-107" edge="1">
          <mxGeometry relative="1" as="geometry">
            <mxPoint x="955" y="4090" as="sourcePoint" />
            <mxPoint x="1131" y="4110" as="targetPoint" />
          </mxGeometry>
        </mxCell>
        <mxCell id="sAdrH8txR1JdPMxLCLVV-113" value="dd" style="text;html=1;align=center;verticalAlign=middle;resizable=0;points=[];autosize=1;strokeColor=none;fillColor=none;" parent="1" vertex="1">
          <mxGeometry x="1210" y="4148" width="40" height="30" as="geometry" />
        </mxCell>
        <mxCell id="sAdrH8txR1JdPMxLCLVV-116" style="edgeStyle=none;rounded=0;orthogonalLoop=1;jettySize=auto;html=1;exitX=0.5;exitY=1;exitDx=0;exitDy=0;" parent="1" source="sAdrH8txR1JdPMxLCLVV-114" target="sAdrH8txR1JdPMxLCLVV-115" edge="1">
          <mxGeometry relative="1" as="geometry" />
        </mxCell>
        <mxCell id="sAdrH8txR1JdPMxLCLVV-114" value="B partition&lt;br&gt;firmware(RamDISK)" style="rounded=0;whiteSpace=wrap;html=1;" parent="1" vertex="1">
          <mxGeometry x="893" y="4355" width="120" height="60" as="geometry" />
        </mxCell>
        <mxCell id="sAdrH8txR1JdPMxLCLVV-119" style="edgeStyle=none;rounded=0;orthogonalLoop=1;jettySize=auto;html=1;exitX=1;exitY=0.5;exitDx=0;exitDy=0;" parent="1" source="sAdrH8txR1JdPMxLCLVV-115" target="sAdrH8txR1JdPMxLCLVV-118" edge="1">
          <mxGeometry relative="1" as="geometry" />
        </mxCell>
        <mxCell id="sAdrH8txR1JdPMxLCLVV-115" value="A partition" style="rounded=0;whiteSpace=wrap;html=1;" parent="1" vertex="1">
          <mxGeometry x="894.5" y="4530" width="117" height="60" as="geometry" />
        </mxCell>
        <mxCell id="sAdrH8txR1JdPMxLCLVV-117" value="Download" style="text;html=1;align=center;verticalAlign=middle;resizable=0;points=[];autosize=1;strokeColor=none;fillColor=none;" parent="1" vertex="1">
          <mxGeometry x="950" y="4460" width="80" height="30" as="geometry" />
        </mxCell>
        <mxCell id="sAdrH8txR1JdPMxLCLVV-118" value="A partition" style="rounded=0;whiteSpace=wrap;html=1;" parent="1" vertex="1">
          <mxGeometry x="1080" y="4530" width="117" height="60" as="geometry" />
        </mxCell>
        <mxCell id="Ax6Hd2l63TIsmJA3Jz5F-1" value="U-Disk (/dev/sda)" style="rounded=0;whiteSpace=wrap;html=1;fontSize=15;verticalAlign=top;fontStyle=1;fillColor=#dae8fc;strokeColor=#6c8ebf;" vertex="1" parent="1">
          <mxGeometry x="-1460" y="1960" width="150" height="210" as="geometry" />
        </mxCell>
        <mxCell id="Ax6Hd2l63TIsmJA3Jz5F-2" value="EMMC (/dev/mmcb0)" style="rounded=0;whiteSpace=wrap;html=1;fontSize=15;fontStyle=1;verticalAlign=top;fillColor=#e1d5e7;strokeColor=#9673a6;" vertex="1" parent="1">
          <mxGeometry x="-1460" y="1700" width="150" height="220" as="geometry" />
        </mxCell>
        <mxCell id="Ax6Hd2l63TIsmJA3Jz5F-3" value="QSPI FLASH" style="rounded=0;whiteSpace=wrap;html=1;fontSize=15;fillColor=#fff2cc;strokeColor=#d6b656;verticalAlign=top;fontStyle=1" vertex="1" parent="1">
          <mxGeometry x="-1460" y="1545" width="150" height="120" as="geometry" />
        </mxCell>
        <mxCell id="Ax6Hd2l63TIsmJA3Jz5F-4" style="edgeStyle=orthogonalEdgeStyle;rounded=0;orthogonalLoop=1;jettySize=auto;html=1;exitX=1;exitY=0.5;exitDx=0;exitDy=0;entryX=0;entryY=0.5;entryDx=0;entryDy=0;" edge="1" parent="1" source="Ax6Hd2l63TIsmJA3Jz5F-5" target="Ax6Hd2l63TIsmJA3Jz5F-31">
          <mxGeometry relative="1" as="geometry" />
        </mxCell>
        <mxCell id="Ax6Hd2l63TIsmJA3Jz5F-5" value="rootfs (EXT4)&lt;br&gt;B Partition" style="rounded=0;whiteSpace=wrap;html=1;fontStyle=1;fillColor=#d5e8d4;strokeColor=#82b366;" vertex="1" parent="1">
          <mxGeometry x="-1460" y="2070" width="150" height="65" as="geometry" />
        </mxCell>
        <mxCell id="Ax6Hd2l63TIsmJA3Jz5F-6" style="edgeStyle=orthogonalEdgeStyle;rounded=0;orthogonalLoop=1;jettySize=auto;html=1;exitX=1;exitY=0.5;exitDx=0;exitDy=0;entryX=0;entryY=0.5;entryDx=0;entryDy=0;" edge="1" parent="1" source="Ax6Hd2l63TIsmJA3Jz5F-7" target="Ax6Hd2l63TIsmJA3Jz5F-27">
          <mxGeometry relative="1" as="geometry" />
        </mxCell>
        <mxCell id="Ax6Hd2l63TIsmJA3Jz5F-7" value="rootfs (EXT4)&lt;br&gt;A Partition" style="rounded=0;whiteSpace=wrap;html=1;fontStyle=1;fillColor=#d5e8d4;strokeColor=#82b366;" vertex="1" parent="1">
          <mxGeometry x="-1460" y="1801" width="150" height="90" as="geometry" />
        </mxCell>
        <mxCell id="Ax6Hd2l63TIsmJA3Jz5F-8" style="edgeStyle=orthogonalEdgeStyle;rounded=0;orthogonalLoop=1;jettySize=auto;html=1;exitX=1;exitY=0.5;exitDx=0;exitDy=0;" edge="1" parent="1" source="Ax6Hd2l63TIsmJA3Jz5F-9" target="Ax6Hd2l63TIsmJA3Jz5F-25">
          <mxGeometry relative="1" as="geometry" />
        </mxCell>
        <mxCell id="Ax6Hd2l63TIsmJA3Jz5F-9" value="kernel (FAT32)&lt;br&gt;B Partition" style="rounded=0;whiteSpace=wrap;html=1;fontStyle=1;fillColor=#f8cecc;strokeColor=#b85450;" vertex="1" parent="1">
          <mxGeometry x="-1460" y="2005" width="150" height="45" as="geometry" />
        </mxCell>
        <mxCell id="Ax6Hd2l63TIsmJA3Jz5F-10" style="edgeStyle=orthogonalEdgeStyle;rounded=0;orthogonalLoop=1;jettySize=auto;html=1;exitX=1;exitY=0.5;exitDx=0;exitDy=0;entryX=0;entryY=0.5;entryDx=0;entryDy=0;" edge="1" parent="1" source="Ax6Hd2l63TIsmJA3Jz5F-11" target="Ax6Hd2l63TIsmJA3Jz5F-22">
          <mxGeometry relative="1" as="geometry" />
        </mxCell>
        <mxCell id="Ax6Hd2l63TIsmJA3Jz5F-11" value="kernel (FAT32)&lt;br&gt;A Partition" style="rounded=0;whiteSpace=wrap;html=1;fontStyle=1;fillColor=#f8cecc;strokeColor=#b85450;" vertex="1" parent="1">
          <mxGeometry x="-1460" y="1745" width="150" height="45" as="geometry" />
        </mxCell>
        <mxCell id="Ax6Hd2l63TIsmJA3Jz5F-12" style="edgeStyle=orthogonalEdgeStyle;rounded=0;orthogonalLoop=1;jettySize=auto;html=1;exitX=1;exitY=0.5;exitDx=0;exitDy=0;" edge="1" parent="1" source="Ax6Hd2l63TIsmJA3Jz5F-13" target="Ax6Hd2l63TIsmJA3Jz5F-17">
          <mxGeometry relative="1" as="geometry" />
        </mxCell>
        <mxCell id="Ax6Hd2l63TIsmJA3Jz5F-13" value="bootloader" style="rounded=0;whiteSpace=wrap;html=1;fontStyle=1;fillColor=#f0a30a;strokeColor=#BD7000;fontColor=#000000;" vertex="1" parent="1">
          <mxGeometry x="-1460" y="1595" width="150" height="45" as="geometry" />
        </mxCell>
        <mxCell id="Ax6Hd2l63TIsmJA3Jz5F-14" style="edgeStyle=orthogonalEdgeStyle;rounded=0;orthogonalLoop=1;jettySize=auto;html=1;exitX=0.5;exitY=1;exitDx=0;exitDy=0;" edge="1" parent="1" source="Ax6Hd2l63TIsmJA3Jz5F-15" target="Ax6Hd2l63TIsmJA3Jz5F-17">
          <mxGeometry relative="1" as="geometry" />
        </mxCell>
        <mxCell id="Ax6Hd2l63TIsmJA3Jz5F-15" value="Power On" style="rounded=1;whiteSpace=wrap;html=1;fontStyle=1" vertex="1" parent="1">
          <mxGeometry x="-1090" y="1490" width="120" height="40" as="geometry" />
        </mxCell>
        <mxCell id="Ax6Hd2l63TIsmJA3Jz5F-16" style="edgeStyle=orthogonalEdgeStyle;rounded=0;orthogonalLoop=1;jettySize=auto;html=1;exitX=0.5;exitY=1;exitDx=0;exitDy=0;" edge="1" parent="1" source="Ax6Hd2l63TIsmJA3Jz5F-17" target="Ax6Hd2l63TIsmJA3Jz5F-20">
          <mxGeometry relative="1" as="geometry" />
        </mxCell>
        <mxCell id="Ax6Hd2l63TIsmJA3Jz5F-17" value="Read uboot and boot from it" style="rounded=0;whiteSpace=wrap;html=1;fillColor=#f5f5f5;strokeColor=#666666;fontColor=#333333;fontSize=16;fontStyle=1" vertex="1" parent="1">
          <mxGeometry x="-1155" y="1587.5" width="250" height="60" as="geometry" />
        </mxCell>
        <mxCell id="Ax6Hd2l63TIsmJA3Jz5F-18" style="edgeStyle=orthogonalEdgeStyle;rounded=0;orthogonalLoop=1;jettySize=auto;html=1;exitX=0.5;exitY=1;exitDx=0;exitDy=0;" edge="1" parent="1" source="Ax6Hd2l63TIsmJA3Jz5F-20" target="Ax6Hd2l63TIsmJA3Jz5F-22">
          <mxGeometry relative="1" as="geometry" />
        </mxCell>
        <mxCell id="Ax6Hd2l63TIsmJA3Jz5F-19" style="edgeStyle=orthogonalEdgeStyle;rounded=0;orthogonalLoop=1;jettySize=auto;html=1;exitX=1;exitY=0.5;exitDx=0;exitDy=0;entryX=1;entryY=0.5;entryDx=0;entryDy=0;" edge="1" parent="1" source="Ax6Hd2l63TIsmJA3Jz5F-20" target="Ax6Hd2l63TIsmJA3Jz5F-25">
          <mxGeometry relative="1" as="geometry">
            <Array as="points">
              <mxPoint x="-890" y="1715" />
              <mxPoint x="-890" y="2028" />
            </Array>
          </mxGeometry>
        </mxCell>
        <mxCell id="Ax6Hd2l63TIsmJA3Jz5F-20" value="Which&lt;br&gt;partition?" style="rhombus;whiteSpace=wrap;html=1;fillColor=#a20025;strokeColor=#6F0000;fontStyle=1;fontSize=15;fontColor=#ffffff;" vertex="1" parent="1">
          <mxGeometry x="-1090" y="1675" width="120" height="80" as="geometry" />
        </mxCell>
        <mxCell id="Ax6Hd2l63TIsmJA3Jz5F-21" style="edgeStyle=orthogonalEdgeStyle;rounded=0;orthogonalLoop=1;jettySize=auto;html=1;exitX=0.5;exitY=1;exitDx=0;exitDy=0;" edge="1" parent="1" source="Ax6Hd2l63TIsmJA3Jz5F-22" target="Ax6Hd2l63TIsmJA3Jz5F-27">
          <mxGeometry relative="1" as="geometry" />
        </mxCell>
        <mxCell id="Ax6Hd2l63TIsmJA3Jz5F-22" value="Read Kernel and DTB" style="rounded=0;whiteSpace=wrap;html=1;fillColor=#f5f5f5;fontColor=#333333;strokeColor=#666666;fontStyle=1;fontSize=15;" vertex="1" parent="1">
          <mxGeometry x="-1090" y="1800" width="120" height="60" as="geometry" />
        </mxCell>
        <mxCell id="Ax6Hd2l63TIsmJA3Jz5F-23" value="A Partition" style="text;html=1;align=center;verticalAlign=middle;resizable=0;points=[];autosize=1;strokeColor=none;fillColor=none;fontStyle=1" vertex="1" parent="1">
          <mxGeometry x="-1020" y="1760" width="80" height="30" as="geometry" />
        </mxCell>
        <mxCell id="Ax6Hd2l63TIsmJA3Jz5F-24" style="edgeStyle=orthogonalEdgeStyle;rounded=0;orthogonalLoop=1;jettySize=auto;html=1;exitX=0.5;exitY=1;exitDx=0;exitDy=0;entryX=0.5;entryY=0;entryDx=0;entryDy=0;" edge="1" parent="1" source="Ax6Hd2l63TIsmJA3Jz5F-25" target="Ax6Hd2l63TIsmJA3Jz5F-31">
          <mxGeometry relative="1" as="geometry" />
        </mxCell>
        <mxCell id="Ax6Hd2l63TIsmJA3Jz5F-25" value="Read Kernel and DTB" style="rounded=0;whiteSpace=wrap;html=1;fillColor=#f5f5f5;fontColor=#333333;strokeColor=#666666;fontStyle=1;fontSize=15;" vertex="1" parent="1">
          <mxGeometry x="-1090" y="1997.5" width="120" height="60" as="geometry" />
        </mxCell>
        <mxCell id="Ax6Hd2l63TIsmJA3Jz5F-26" style="edgeStyle=orthogonalEdgeStyle;rounded=0;orthogonalLoop=1;jettySize=auto;html=1;exitX=1;exitY=0.5;exitDx=0;exitDy=0;" edge="1" parent="1" source="Ax6Hd2l63TIsmJA3Jz5F-27" target="Ax6Hd2l63TIsmJA3Jz5F-36">
          <mxGeometry relative="1" as="geometry" />
        </mxCell>
        <mxCell id="Ax6Hd2l63TIsmJA3Jz5F-27" value="Mount rootfs" style="rounded=0;whiteSpace=wrap;html=1;fillColor=#f5f5f5;fontColor=#333333;strokeColor=#666666;fontStyle=1;fontSize=15;" vertex="1" parent="1">
          <mxGeometry x="-1090" y="1891" width="120" height="60" as="geometry" />
        </mxCell>
        <mxCell id="Ax6Hd2l63TIsmJA3Jz5F-28" value="Read" style="text;html=1;align=center;verticalAlign=middle;resizable=0;points=[];autosize=1;strokeColor=none;fillColor=none;fontStyle=1" vertex="1" parent="1">
          <mxGeometry x="-1185" y="1888" width="50" height="30" as="geometry" />
        </mxCell>
        <mxCell id="Ax6Hd2l63TIsmJA3Jz5F-29" value="Read" style="text;html=1;align=center;verticalAlign=middle;resizable=0;points=[];autosize=1;strokeColor=none;fillColor=none;fontStyle=1" vertex="1" parent="1">
          <mxGeometry x="-1190" y="1795" width="50" height="30" as="geometry" />
        </mxCell>
        <mxCell id="Ax6Hd2l63TIsmJA3Jz5F-30" style="edgeStyle=orthogonalEdgeStyle;rounded=0;orthogonalLoop=1;jettySize=auto;html=1;exitX=1;exitY=0.5;exitDx=0;exitDy=0;entryX=0.5;entryY=1;entryDx=0;entryDy=0;" edge="1" parent="1" source="Ax6Hd2l63TIsmJA3Jz5F-31" target="Ax6Hd2l63TIsmJA3Jz5F-36">
          <mxGeometry relative="1" as="geometry" />
        </mxCell>
        <mxCell id="Ax6Hd2l63TIsmJA3Jz5F-31" value="Mount rootfs" style="rounded=0;whiteSpace=wrap;html=1;fillColor=#f5f5f5;fontColor=#333333;strokeColor=#666666;fontStyle=1;fontSize=15;" vertex="1" parent="1">
          <mxGeometry x="-1090" y="2120" width="120" height="60" as="geometry" />
        </mxCell>
        <mxCell id="Ax6Hd2l63TIsmJA3Jz5F-32" value="B Partition" style="text;html=1;align=center;verticalAlign=middle;resizable=0;points=[];autosize=1;strokeColor=none;fillColor=none;fontStyle=1" vertex="1" parent="1">
          <mxGeometry x="-960" y="1680" width="80" height="30" as="geometry" />
        </mxCell>
        <mxCell id="Ax6Hd2l63TIsmJA3Jz5F-33" value="Read" style="text;html=1;align=center;verticalAlign=middle;resizable=0;points=[];autosize=1;strokeColor=none;fillColor=none;fontStyle=1" vertex="1" parent="1">
          <mxGeometry x="-1170" y="2000" width="50" height="30" as="geometry" />
        </mxCell>
        <mxCell id="Ax6Hd2l63TIsmJA3Jz5F-34" value="Read" style="text;html=1;align=center;verticalAlign=middle;resizable=0;points=[];autosize=1;strokeColor=none;fillColor=none;fontStyle=1" vertex="1" parent="1">
          <mxGeometry x="-1180" y="2120" width="50" height="30" as="geometry" />
        </mxCell>
        <mxCell id="Ax6Hd2l63TIsmJA3Jz5F-35" value="Read" style="text;html=1;align=center;verticalAlign=middle;resizable=0;points=[];autosize=1;strokeColor=none;fillColor=none;fontStyle=1" vertex="1" parent="1">
          <mxGeometry x="-1260" y="1587.5" width="50" height="30" as="geometry" />
        </mxCell>
        <mxCell id="Ax6Hd2l63TIsmJA3Jz5F-36" value="" style="ellipse;whiteSpace=wrap;html=1;aspect=fixed;fillColor=#d0cee2;strokeColor=#56517e;" vertex="1" parent="1">
          <mxGeometry x="-810" y="2021" width="29" height="29" as="geometry" />
        </mxCell>
        <mxCell id="Ax6Hd2l63TIsmJA3Jz5F-37" value="Linux Runtime" style="text;html=1;align=center;verticalAlign=middle;resizable=0;points=[];autosize=1;strokeColor=none;fillColor=none;fontStyle=1" vertex="1" parent="1">
          <mxGeometry x="-910" y="2040" width="110" height="30" as="geometry" />
        </mxCell>
        <mxCell id="Ax6Hd2l63TIsmJA3Jz5F-38" style="edgeStyle=orthogonalEdgeStyle;rounded=0;orthogonalLoop=1;jettySize=auto;html=1;exitX=0.5;exitY=1;exitDx=0;exitDy=0;" edge="1" parent="1" source="Ax6Hd2l63TIsmJA3Jz5F-39" target="Ax6Hd2l63TIsmJA3Jz5F-42">
          <mxGeometry relative="1" as="geometry" />
        </mxCell>
        <mxCell id="Ax6Hd2l63TIsmJA3Jz5F-39" value="start" style="rounded=1;whiteSpace=wrap;html=1;fillColor=#d5e8d4;strokeColor=#82b366;" vertex="1" parent="1">
          <mxGeometry x="-1420" y="2370" width="85.4" height="30" as="geometry" />
        </mxCell>
        <mxCell id="Ax6Hd2l63TIsmJA3Jz5F-40" style="edgeStyle=orthogonalEdgeStyle;rounded=0;orthogonalLoop=1;jettySize=auto;html=1;exitX=0.5;exitY=1;exitDx=0;exitDy=0;" edge="1" parent="1" source="Ax6Hd2l63TIsmJA3Jz5F-42" target="Ax6Hd2l63TIsmJA3Jz5F-45">
          <mxGeometry relative="1" as="geometry" />
        </mxCell>
        <mxCell id="Ax6Hd2l63TIsmJA3Jz5F-41" style="edgeStyle=orthogonalEdgeStyle;rounded=0;orthogonalLoop=1;jettySize=auto;html=1;exitX=1;exitY=0.5;exitDx=0;exitDy=0;entryX=1;entryY=0.5;entryDx=0;entryDy=0;" edge="1" parent="1" source="Ax6Hd2l63TIsmJA3Jz5F-42" target="Ax6Hd2l63TIsmJA3Jz5F-47">
          <mxGeometry relative="1" as="geometry">
            <Array as="points">
              <mxPoint x="-1240" y="2475" />
              <mxPoint x="-1240" y="2655" />
            </Array>
          </mxGeometry>
        </mxCell>
        <mxCell id="Ax6Hd2l63TIsmJA3Jz5F-42" value="判断Rev 1 or &lt;br&gt;Rev2?" style="rhombus;whiteSpace=wrap;html=1;fillColor=#dae8fc;strokeColor=#6c8ebf;" vertex="1" parent="1">
          <mxGeometry x="-1446" y="2450" width="137.3" height="50" as="geometry" />
        </mxCell>
        <mxCell id="Ax6Hd2l63TIsmJA3Jz5F-43" style="edgeStyle=orthogonalEdgeStyle;rounded=0;orthogonalLoop=1;jettySize=auto;html=1;exitX=0.5;exitY=1;exitDx=0;exitDy=0;" edge="1" parent="1" source="Ax6Hd2l63TIsmJA3Jz5F-45" target="Ax6Hd2l63TIsmJA3Jz5F-47">
          <mxGeometry relative="1" as="geometry" />
        </mxCell>
        <mxCell id="Ax6Hd2l63TIsmJA3Jz5F-44" style="edgeStyle=orthogonalEdgeStyle;rounded=0;orthogonalLoop=1;jettySize=auto;html=1;exitX=0;exitY=0.5;exitDx=0;exitDy=0;" edge="1" parent="1" source="Ax6Hd2l63TIsmJA3Jz5F-45" target="Ax6Hd2l63TIsmJA3Jz5F-50">
          <mxGeometry relative="1" as="geometry" />
        </mxCell>
        <mxCell id="Ax6Hd2l63TIsmJA3Jz5F-45" value="SEQ_BIT使能？" style="rhombus;whiteSpace=wrap;html=1;fillColor=#dae8fc;strokeColor=#6c8ebf;" vertex="1" parent="1">
          <mxGeometry x="-1446" y="2550" width="137.3" height="50" as="geometry" />
        </mxCell>
        <mxCell id="Ax6Hd2l63TIsmJA3Jz5F-46" value="Rev 2" style="text;html=1;align=center;verticalAlign=middle;resizable=0;points=[];autosize=1;strokeColor=none;fillColor=none;" vertex="1" parent="1">
          <mxGeometry x="-1376" y="2508" width="50" height="30" as="geometry" />
        </mxCell>
        <mxCell id="Ax6Hd2l63TIsmJA3Jz5F-47" value="正常引导" style="rounded=1;whiteSpace=wrap;html=1;fillColor=#d5e8d4;strokeColor=#82b366;" vertex="1" parent="1">
          <mxGeometry x="-1420" y="2640" width="85.4" height="30" as="geometry" />
        </mxCell>
        <mxCell id="Ax6Hd2l63TIsmJA3Jz5F-48" value="Y" style="text;html=1;align=center;verticalAlign=middle;resizable=0;points=[];autosize=1;strokeColor=none;fillColor=none;" vertex="1" parent="1">
          <mxGeometry x="-1370" y="2600" width="30" height="30" as="geometry" />
        </mxCell>
        <mxCell id="Ax6Hd2l63TIsmJA3Jz5F-49" value="Rev 1" style="text;html=1;align=center;verticalAlign=middle;resizable=0;points=[];autosize=1;strokeColor=none;fillColor=none;" vertex="1" parent="1">
          <mxGeometry x="-1315" y="2448" width="50" height="30" as="geometry" />
        </mxCell>
        <mxCell id="Ax6Hd2l63TIsmJA3Jz5F-50" value="hang 在uboot console" style="rounded=1;whiteSpace=wrap;html=1;fillColor=#d5e8d4;strokeColor=#82b366;" vertex="1" parent="1">
          <mxGeometry x="-1570" y="2640" width="85.4" height="30" as="geometry" />
        </mxCell>
        <mxCell id="Ax6Hd2l63TIsmJA3Jz5F-51" value="N" style="text;html=1;align=center;verticalAlign=middle;resizable=0;points=[];autosize=1;strokeColor=none;fillColor=none;" vertex="1" parent="1">
          <mxGeometry x="-1495.4" y="2570" width="30" height="30" as="geometry" />
        </mxCell>
      </root>
    </mxGraphModel>
  </diagram>
</mxfile>
